<?xml version="1.0" standalone="no"?>
<!DOCTYPE svg PUBLIC "-//W3C//DTD SVG 1.1//EN" "http://www.w3.org/Graphics/SVG/1.1/DTD/svg11.dtd" >
<svg xmlns="http://www.w3.org/2000/svg">
<metadata>Generated by IcoMoon</metadata>
<defs>
<font id="tr-icon-1" horiz-adv-x="1024">
<font-face units-per-em="1024" ascent="960" descent="-64" />
<missing-glyph horiz-adv-x="1024" />
<glyph unicode="&#x20;" horiz-adv-x="512" d="" />
<glyph unicode="&#xe900;" glyph-name="trc-man" d="M709.632 755.917c0-109.158-88.474-197.632-197.632-197.632s-197.632 88.474-197.632 197.632c0 109.158 88.474 197.632 197.632 197.632s197.632-88.474 197.632-197.632zM512 421.376c12.186 0 27.443 0 36.557 9.114s24.166 33.485 24.269 51.712c0.102 21.299-37.171 24.371-60.826 24.371s-60.928-3.072-60.826-24.371c0.102-18.227 15.155-42.598 24.269-51.712s24.371-9.114 36.557-9.114zM1013.76-57.549h-167.219l-53.248 228.045-15.258-228.045h-532.173l-15.155 228.045-53.248-228.045h-167.219l95.744 427.725c11.059 49.152 51.2 86.426 100.966 93.798l175.718 25.805 88.166-202.24 10.24 100.864c0.307 3.174 2.867 5.53 6.042 5.53h49.766c3.174 0 5.734-2.355 6.042-5.53l11.264-98.406 87.040 199.68 175.718-25.805c49.869-7.373 90.010-44.646 100.966-93.798l95.846-427.622zM740.045 216.166l-30.413 60.826-91.238-60.826h121.651z" />
<glyph unicode="&#xe901;" glyph-name="trc-mans" d="M485.837 903.045c-58.317-10.506-106.353-52.101-125.225-108.288-8.151-24.658-9.646-59.392-3.215-84.695 6.001-24.873 19.302-50.606 34.949-67.543l12.861-13.937-8.366-3.215c-47.821-19.087-87.276-51.681-102.062-84.695-5.571-12.442-10.076-29.164-10.076-37.949v-7.076h89.211l2.57 7.506c8.366 22.948 58.972 46.746 112.794 52.746 63.252 7.076 146.452-20.797 158.249-52.746l2.57-7.506h89.836l-1.29 13.076c-4.721 44.39-44.595 88.34-102.277 112.579-7.721 3.215-14.367 6.216-14.797 6.431-0.43 0.43 5.151 7.936 12.227 16.722 16.087 19.948 26.808 41.595 32.809 65.618 3.86 15.012 4.506 22.303 3.645 42.885-1.925 42.885-16.292 75.264-47.821 106.353-14.152 14.152-21.228 19.302-37.734 27.443-11.151 5.356-25.948 11.366-33.024 13.292-15.227 3.86-51.681 5.571-65.833 3zM542.659 807.844c13.087-6.216 24.443-17.582 31.949-31.734 4.076-7.721 4.936-12.431 4.936-29.594 0-16.937-0.86-22.088-4.936-30.454-21.228-43.1-78.694-52.961-111.503-18.872-14.367 14.582-18.657 25.733-18.657 48.456 0 17.367 0.645 20.797 6.431 31.949 17.162 33.249 58.122 46.756 91.781 30.249zM198.932 396.995c-8.796-2.355-24.228-8.366-34.304-13.302-15.012-7.291-21.873-12.431-38.595-29.379-22.518-22.518-32.164-38.38-41.175-66.683-4.291-13.722-4.936-20.367-4.936-46.1 0.215-27.023 0.86-31.734 6.001-47.176 7.506-21.443 19.732-42.025 33.669-57.467 10.506-11.366 10.721-12.012 6.001-13.292-10.076-3-43.96-21.228-56.607-30.228-33.874-24.013-58.747-64.113-58.747-94.566v-7.076h45.025c45.025 0 45.025 0 45.025 4.721 0 6.861 22.088 27.238 37.315 34.744 62.188 30.024 137.667 30.024 199.844 0 15.227-7.506 37.315-27.873 37.315-34.744 0-4.721 0-4.721 45.025-4.721h45.025v7.076c0 30.669-24.873 70.543-58.972 94.781-12.227 8.786-39.025 22.948-54.036 28.948l-7.076 2.57 11.366 12.442c15.012 16.722 24.228 32.594 32.164 55.101 9.011 25.948 10.506 59.822 3.86 86.63-14.367 58.112-59.187 103.352-116.859 117.719-22.292 5.581-54.241 5.581-76.329 0zM265.411 305.654c53.176-24.443 54.897-97.997 3.215-124.795-8.151-4.076-15.012-5.571-28.088-6.431-15.657-0.86-18.872-0.215-30.024 4.721-16.507 7.506-29.164 20.152-36.239 36.239-5.151 11.366-5.786 14.797-4.936 30.239 1.505 28.303 15.012 48.466 40.315 60.037 9.431 4.291 15.227 5.581 27.873 5.581s18.442-1.3 27.884-5.591zM747.868 396.995c-28.303-7.291-49.961-19.948-72.049-41.81-21.658-21.228-32.164-38.175-41.175-64.973-4.936-14.582-5.581-19.937-5.581-47.606 0-28.518 0.43-32.594 5.786-48.251 7.506-21.228 19.732-42.24 33.454-57.252l10.291-11.151-23.583-11.366c-29.164-14.152-46.531-26.368-63.048-44.38-19.732-21.443-32.809-50.176-32.809-71.404v-7.076h45.025c45.025 0 45.025 0 45.025 4.721 0 7.076 22.303 27.443 38.595 35.164 63.048 30.228 139.162 29.594 199.844-1.72 17.797-9.216 36.024-26.368 36.024-33.874 0-4.076 1.075-4.291 45.025-4.291h45.066v7.076c0 3.86-1.505 12.657-3.215 19.732-11.151 42.24-49.316 79.124-106.568 102.707-4.506 1.71-8.151 3.86-8.151 4.721 0 0.645 4.506 6.216 9.861 12.216 13.292 14.797 25.088 35.594 32.164 56.187 4.506 13.507 6.011 22.518 6.861 42.025 1.075 30.239-3.43 51.251-17.152 79.124-7.291 15.012-12.442 21.873-29.379 38.595-23.368 23.368-44.38 35.379-73.974 42.885-22.303 5.581-54.252 5.581-76.339 0zM814.346 305.654c25.303-11.581 38.81-31.734 40.315-60.037 0.86-15.442 0.215-18.872-4.936-30.239-7.076-16.087-19.732-28.733-36.239-36.239-11.151-4.936-14.367-5.581-30.024-4.721-13.076 0.86-19.937 2.355-28.088 6.431-41.38 21.443-50.606 76.124-18.657 109.783 4.291 4.506 13.722 10.936 20.797 14.367 17.592 8.591 39.465 8.796 56.832 0.655z" />
<glyph unicode="&#xe902;" glyph-name="trc-woman" d="M928.154 256.819v352.461c-10.854 203.981-250.061 271.36-258.56 273.51-6.246 2.355-154.726 55.603-333.619-12.902-237.261-90.624-245.453-268.8-245.658-276.992v-356.25c-60.416-7.68-75.571-49.357-79.053-75.264-5.12-38.093 9.523-58.675 22.733-69.325 16.486-13.312 39.526-17.715 63.078-17.715 45.056 0 92.16 16.384 99.84 19.149 8.090 2.867 13.414 10.65 13.414 19.149v45.978c0 11.264-9.114 20.48-20.48 20.48s-20.48-9.114-20.48-20.48v-31.13c-33.792-10.035-89.19-20.173-109.875-3.584-2.765 2.15-10.957 8.806-7.885 32.051 2.56 19.149 11.571 41.062 58.88 41.062 11.264 0 20.48 9.114 20.48 20.48v374.784c0 1.638 7.373 158.515 219.341 239.514 163.84 62.669 303.616 13.21 306.586 12.083 2.253-0.614 220.877-62.464 230.195-235.725v-362.701c0-7.168 3.789-13.824 9.933-17.51 33.28-19.968 78.029-58.675 75.674-79.462-1.024-8.192-12.8-16.486-32.563-23.142h-101.478v38.298c0 11.264-9.114 20.48-20.48 20.48s-20.48-9.114-20.48-20.48v-58.675c0-11.264 9.114-20.48 20.48-20.48h125.133c2.048 0 4.096 0.307 6.144 0.922 39.322 12.288 60.723 31.949 63.898 58.266 5.734 48.026-57.344 94.822-85.197 113.152zM807.526 506.573c8.090 1.843 14.643 8.602 15.667 17.408 1.434 11.264-6.554 21.402-17.818 22.733-82.534 10.138-199.168 111.002-232.346 141.107 6.246 23.552 7.475 39.834 7.578 41.574 0.717 11.264-7.68 20.992-18.944 21.709-11.469 1.229-21.094-7.68-21.914-18.944 0-0.41-1.536-18.227-9.216-43.418-0.307-0.717-0.512-1.536-0.717-2.253-10.24-32.461-30.822-76.288-71.578-110.592-54.374-45.773-131.277-64.41-228.25-54.682-10.957 0.819-21.197-7.168-22.323-18.33-1.126-11.264 7.168-21.197 18.33-22.323 17.818-1.741 35.123-2.56 51.814-2.56 84.89 0 154.419 22.528 207.155 67.174 36.762 31.13 59.494 68.096 73.421 100.762 40.858-35.84 128.614-107.11 207.36-131.891 2.458-26.726 6.246-111.104-23.757-243.507-25.805-114.483-94.106-215.757-155.238-230.605-36.966-9.011-116.429-13.619-169.062 5.12-97.587 34.816-155.341 247.603-169.37 326.554-1.946 11.059-12.39 18.33-23.654 16.589-11.059-1.946-18.534-12.595-16.589-23.654 2.253-12.595 56.013-308.122 195.891-357.99 31.232-11.162 69.632-15.258 105.267-15.258 34.202 0 66.048 3.789 87.142 8.909 76.186 18.534 155.955 130.867 185.549 261.222 28.262 123.802 28.058 207.258 25.6 245.146zM441.549 414.106h-95.744c-11.264 0-20.48-9.114-20.48-20.48 0-11.264 9.114-20.48 20.48-20.48h95.744c11.264 0 20.48 9.114 20.48 20.48-0.102 11.264-9.216 20.48-20.48 20.48zM583.27 373.248h86.835c11.264 0 20.48 9.114 20.48 20.48s-9.114 20.48-20.48 20.48h-86.835c-11.264 0-20.48-9.114-20.48-20.48s9.216-20.48 20.48-20.48zM540.672 206.643c-1.536-2.765-9.318-7.782-16.691-11.059h-56.934c-11.264 0-20.48-9.114-20.48-20.48s9.114-20.48 20.48-20.48h60.826c2.355 0 4.813 0.41 7.066 1.229 9.216 3.379 39.834 16.384 45.261 40.755 2.458 11.059-4.301 22.426-15.36 24.883-10.854 2.662-21.709-3.789-24.166-14.848z" />
<glyph unicode="&#xe903;" glyph-name="trc-headimg" d="M842.854 219.955h49.152c-46.285 123.187-144.384 218.624-266.138 256.102 80.691 41.677 135.885 125.747 135.885 222.822 0 138.547-112.333 250.88-250.88 250.88s-250.88-112.333-250.88-250.88c0-97.075 55.296-181.146 135.885-222.822-163.942-50.483-285.184-205.926-294.4-393.011h45.568c11.264 203.469 169.574 364.954 363.93 364.954 147.866 0 274.637-93.696 331.878-228.045zM305.664 698.88c0 113.357 91.955 205.312 205.312 205.312s205.312-91.853 205.312-205.312c0-113.357-91.853-205.312-205.312-205.312s-205.312 91.955-205.312 205.312zM808.448 219.955h-45.568v-114.074h-114.074v-45.568h114.074v-114.074h45.568v114.074h114.074v45.568h-114.074v114.074z" />
<glyph unicode="&#xe904;" glyph-name="trc-headimage" d="M459.776 947.282c-176.2-20.111-325.499-126.177-401.408-285.542-54.804-114.872-63.099-249.344-23.378-370.493 52.777-160.614 185.999-287.048 347.372-329.021 50.524-13.066 73.902-16.087 130.202-16.087 56.054 0 79.677 3.021 129.454 15.841 171.674 44.739 311.173 184.238 355.912 355.912 12.82 49.766 15.831 73.4 15.831 129.444 0 56.3-3.021 79.677-16.087 130.202-41.974 161.372-168.407 294.584-329.021 347.372-64.604 21.361-144.026 29.655-208.876 22.374zM571.372 906.056c148.808-19.61 275.241-106.824 349.389-240.548l9.298-17.091h-138.496v30.167h-116.879c-127.693 0-127.437 0-142.766-14.582-15.084-14.070-16.845-21.617-16.845-65.597 0-34.437 0.758-42.23 5.028-54.036 5.786-15.329 21.361-34.181 35.185-42.988 20.357-12.82 31.416-14.080 109.844-13.322l72.387 0.758 12.82 6.789c17.091 9.052 32.676 27.146 37.448 42.977 2.263 8.049 3.768 23.122 3.768 41.226v28.406h155.597l6.533-20.859c21.115-69.898 26.9-149.821 15.084-216.689-24.627-140.759-109.588-260.147-235.52-330.025-38.963-21.617-94.003-40.724-144.026-49.766-35.441-6.533-117.883-6.533-153.324 0-161.116 29.409-290.816 133.468-351.642 282.266-40.223 98.284-44.749 210.637-12.82 314.45l6.533 20.613h155.587v-29.655c0-20.613 1.26-33.434 4.024-41.472 5.028-15.084 21.115-32.932 37.202-41.472l12.82-6.789 72.387-0.758c78.418-0.758 89.477 0.502 109.844 13.322 13.824 8.796 29.409 27.648 35.185 42.988 4.27 11.817 5.028 19.61 5.028 54.036 0 43.991-1.761 51.528-16.845 65.597-15.329 14.582-15.084 14.582-142.766 14.582h-116.879v-30.167h-138.496l9.554 17.091c45.998 82.944 107.325 144.282 189.522 189.768 47.503 26.143 115.876 46.756 175.698 52.787 23.368 2.519 75.653 1.26 101.54-2.007zM466.811 635.341c2.007-2.007 3.021-14.080 3.021-37.704 0-40.714-3.267-50.268-20.613-61.583l-10.301-7.035-68.618-0.758c-76.667-0.758-82.442 0.256-91.494 15.084-4.526 7.537-5.028 12.564-5.028 51.773v43.244h95.007c70.636 0 95.764-0.758 98.028-3.021zM751.35 595.128c0-39.209-0.502-44.237-5.028-51.773-9.052-14.828-14.828-15.831-91.494-15.084l-68.618 0.758-10.312 7.035c-17.347 11.315-20.613 20.869-20.613 61.583 0 23.624 1.004 35.697 3.021 37.704 2.263 2.263 27.392 3.021 98.028 3.021h95.007v-43.244zM272.015 302.551l-15.585-9.052 4.024-6.533c47.002-74.65 123.167-124.672 209.377-137.738 73.4-11.059 152.074 7.793 213.647 51.272 22.876 16.087 57.057 51.026 72.387 73.902l13.066 19.354-16.087 8.796c-8.796 5.028-17.091 9.052-18.35 9.052-1.004 0-6.533-7.035-11.817-15.329-26.644-41.226-77.414-79.432-128.44-97.024-108.083-36.7-234.762 6.533-294.584 100.792-3.768 6.287-8.038 11.315-9.554 11.315-1.249-0.010-9.544-4.024-18.084-8.806z" />
<glyph unicode="&#xe905;" glyph-name="trc-wechat" d="M238.49 555.008c-27.443 0-49.869-22.426-49.869-49.869s22.323-49.869 49.869-49.869c27.443 0 49.869 22.426 49.869 49.869 0 27.546-22.426 49.869-49.869 49.869zM238.49 483.738c-11.878 0-21.504 9.626-21.504 21.504s9.626 21.504 21.504 21.504c11.878 0 21.504-9.626 21.504-21.504s-9.626-21.504-21.504-21.504zM861.184 497.152c-1.434 0.41-2.867 0.614-4.301 0.614-6.246 0-11.571-3.994-13.517-9.83-2.355-7.373 1.741-15.36 9.216-17.715 91.853-29.286 132.813-72.806 132.813-141.107 0-60.723-55.808-108.134-88.986-131.072-3.891-2.662-6.144-6.963-6.144-11.674v-87.654c-16.589 6.554-45.158 20.992-70.451 49.459-3.277 3.686-8.192 5.427-13.21 4.506-6.861-1.331-13.926-3.277-21.094-5.12-11.878-3.277-24.269-6.554-35.738-6.554-60.518 0-102.912 13.005-146.227 44.851-6.144 4.506-15.258 2.97-19.763-3.072-4.608-6.246-3.277-15.155 2.97-19.763 48.64-35.738 95.846-50.278 163.021-50.278 15.258 0 29.491 3.789 43.315 7.475 3.789 1.024 7.578 2.048 11.264 2.97 45.158-47.104 96.666-57.651 97.178-57.754 0.922-0.205 1.843-0.307 2.867-0.307 3.277 0 6.451 1.126 8.909 3.174 3.277 2.662 5.222 6.656 5.222 10.957v99.635c61.338 44.032 95.13 97.382 95.13 150.118 0.102 81.613-48.333 134.963-152.474 168.141zM404.992 557.261c-27.443 0-49.869-22.426-49.869-49.869s22.323-49.869 49.869-49.869c27.443 0 49.869 22.323 49.869 49.869s-22.426 49.869-49.869 49.869zM404.992 485.99c-11.878 0-21.504 9.626-21.504 21.504s9.626 21.504 21.504 21.504c11.878 0 21.504-9.626 21.504-21.504s-9.626-21.504-21.504-21.504zM799.744 507.494c0 184.32-167.834 323.379-390.554 323.379-223.744 0-398.95-142.131-398.95-323.482 0-109.056 77.414-186.982 142.746-233.267v-156.672c0-4.813 2.458-9.216 6.451-11.878 2.355-1.434 5.018-2.253 7.68-2.253 1.946 0 3.891 0.41 5.837 1.229 3.379 1.536 84.070 37.99 154.010 113.971 27.443-5.018 62.566-10.752 94.208-10.752 226.406 0 378.573 120.422 378.573 299.725zM421.069 236.032c-30.925 0-66.253 5.939-96.768 11.776-4.915 0.819-9.933-0.819-13.21-4.506-46.182-52.122-99.84-86.118-129.843-102.707v140.902c0 4.608-2.253 9.011-6.144 11.674-62.259 42.906-136.602 114.79-136.602 214.221 0 165.478 162.816 295.117 370.688 295.117 206.541 0 362.189-126.874 362.189-295.117 0-162.304-140.8-271.36-350.31-271.36zM571.494 557.261c-27.443 0-49.869-22.426-49.869-49.869s22.323-49.869 49.869-49.869c27.443 0 49.869 22.323 49.869 49.869s-22.426 49.869-49.869 49.869zM571.494 485.99c-11.878 0-21.504 9.626-21.504 21.504s9.626 21.504 21.504 21.504c11.878 0 21.504-9.626 21.504-21.504s-9.626-21.504-21.504-21.504z" />
<glyph unicode="&#xe906;" glyph-name="trc-buycay" d="M1000.141 544.154c-11.878 14.95-30.003 22.63-49.152 22.63h-15.36c-4.813 15.667-16.282 46.080-33.485 62.669-22.528 21.606-52.326 33.382-83.456 32.973-56.934-1.229-103.629-48.64-112.742-95.642h-49.971l71.168 240.947c0.205 0.512 0.307 1.946 0.41 2.458 5.734 23.962 1.741 49.050-11.264 70.042-13.414 21.606-34.611 36.864-59.802 42.496-50.79 11.469-101.888-19.456-113.459-67.584l-36.045-122.47c-33.075 25.907-73.933 38.605-116.122 35.533-44.954-3.277-85.811-25.702-115.2-59.802-33.894-39.322-47.002-94.72-37.99-141.824h-164.762c-19.149 0-37.274-7.885-49.152-22.835-11.776-14.848-16.282-33.997-11.878-52.634l109.773-471.040c6.656-28.365 31.949-49.152 61.133-49.152h658.534c29.184 0 54.477 20.992 61.133 49.357l109.773 469.914c4.198 18.637-0.205 38.912-12.083 53.965zM820.122 597.811c14.438 0.717 28.262-5.837 38.707-15.872 4.403-4.198 7.68-15.155 10.445-15.155h-98.304c7.885 15.667 26.829 30.515 49.152 31.027zM603.648 837.325c3.994 16.486 21.606 27.443 39.117 23.654 8.602-1.946 15.872-6.554 20.378-13.722 3.994-6.451 5.325-15.462 3.686-22.733l-76.288-257.741h-66.048l79.155 270.541zM323.072 667.546c18.432 21.402 44.134 35.226 72.397 37.274 28.262 2.15 55.501-6.554 76.902-24.986 5.018-4.301 10.854-8.294 16.998-9.011l-30.31-104.141h-157.184c-10.24 31.437-2.662 73.216 21.197 100.864zM947.712 504.013l-14.234-62.771h-845.926l-14.643 62.771h874.803zM841.216 33.587h-658.534l-87.757 376.32h831.59l-85.299-376.32zM321.229 325.325c-8.499-1.434-14.336-9.523-12.902-18.022l31.334-188.109c1.331-7.68 7.885-13.107 15.462-13.107 0.819 0 1.741 0.102 2.56 0.205 8.499 1.434 14.336 9.523 12.902 18.022l-31.334 188.109c-1.434 8.499-9.421 14.336-18.022 12.902zM702.771 325.325c-8.602 1.536-16.589-4.301-18.022-12.902l-31.437-188.109c-1.434-8.499 4.301-16.589 12.902-18.022 0.922-0.205 1.741-0.205 2.56-0.205 7.475 0 14.131 5.427 15.462 13.107l31.334 188.109c1.434 8.499-4.301 16.589-12.8 18.022zM489.779 328.602c-8.704 0-15.667-6.963-15.667-15.667v-188.109c0-8.704 7.066-15.667 15.667-15.667s15.667 6.963 15.667 15.667v188.006c0 8.704-7.066 15.77-15.667 15.77z" />
<glyph unicode="&#xe907;" glyph-name="trc-message" d="M280.259 947.169c-52.511-11.674-125.676-60.15-193.004-127.703-47.8-48.026-69.345-80.118-75.182-111.77-1.567-8.305-2.243-116.931-1.567-327.444 0.676-351.232-0.676-321.833 16.384-356.618 10.998-22.221 37.929-49.377 60.375-61.051 33.884-17.5 12.114-16.384 317.563-16.384 257.649 0 273.582 0.225 287.273 4.035 48.026 13.691 87.972 53.197 102.339 101.448 3.82 12.339 4.045 28.948 4.71 207.596 0.451 117.596 0 193.229-1.126 191.887s-17.5-28.273-36.137-60.375l-33.884-57.907v-261.007l-6.513-13.466c-7.854-16.609-19.753-28.273-36.352-35.912l-12.564-5.612-540.426 1.126-11.223 6.062c-14.817 7.854-26.481 20.193-33.444 35.461l-5.837 12.339v626.831l66.877 1.126c52.961 0.676 69.345 1.792 79.892 4.71 26.481 7.404 44.657 21.32 55.214 41.523 9.431 18.627 11.674 32.993 12.79 83.937l1.341 48.701h375.245l12.339-5.837c15.258-6.953 27.607-18.627 35.461-33.444 6.062-11.223 6.062-11.448 7.178-72.264l1.126-60.815 34.335 58.348 34.335 58.573-2.693 12.564c-10.322 50.944-50.719 94.034-101.888 109.292-12.339 3.594-28.948 4.035-206.479 4.485-155.064 0.481-195.686 0.031-206.459-2.437zM891.156 875.131c-6.287-2.017-14.141-6.738-19.077-11.899-11.674-11.899-298.486-500.47-315.095-537.057-22.446-49.152-38.38-102.789-41.298-139.366-1.567-18.401 1.567-25.59 9.646-23.112 26.030 8.305 88.873 70.246 126.802 125.010 19.077 27.607 302.305 509.45 306.565 521.349 3.594 10.772 2.468 26.931-3.144 37.704-12.104 24.228-38.82 35.676-64.399 27.372zM985.19 770.54c-15.708-25.58-159.345-270.653-160.020-273.572-2.243-7.854 27.832-11.899 42.865-5.612 10.322 4.26 22.661 15.708 28.948 26.706 2.918 5.161 28.058 48.026 56.105 95.16 27.832 47.135 52.961 89.999 55.654 95.16 9.431 18.627 5.161 44.431-9.646 59.924-8.52 8.52-9.646 8.745-13.906 2.232zM165.356 624.671c-14.367-6.953-13.916-41.964 0.676-48.701 4.035-1.792 70.697-2.468 240.814-2.468 220.836 0 235.653 0.225 240.138 4.035 10.547 8.305 10.547 37.478 0 46.008-4.485 3.594-19.302 3.82-240.814 3.594-160.246 0-237.445-0.901-240.814-2.468zM165.356 516.936c-14.367-6.953-13.916-41.964 0.676-48.701 4.035-1.792 63.734-2.468 213.658-2.468h208.046l14.582 24.914c8.079 13.916 15.032 26.030 15.258 26.931 1.126 2.918-446.157 2.243-452.219-0.676zM165.356 409.211c-14.367-6.953-13.916-41.964 0.676-48.701 4.035-1.792 55.88-2.468 183.357-2.468h177.746l27.832 53.862-192.338-0.225c-129.946 0.010-193.905-0.891-197.274-2.468zM222.587 296.325c-4.71-4.71-6.738-11.674-12.564-41.073-12.564-63.959-21.545-84.163-40.622-89.999-15.708-4.485-20.644-21.094-10.097-33.659 4.936-6.062 7.178-6.953 16.159-6.953 10.772 0 24.238 5.386 33.884 13.015 5.161 4.27 5.386 4.27 16.159-3.144 17.951-11.899 37.253-12.79 53.862-2.017l8.079 5.161 12.114-5.837c17.060-8.53 34.785-8.305 50.493 0.225l11.448 6.287 8.305-5.612c4.71-3.144 11.899-6.287 16.159-7.178 25.58-4.721 57.682 16.159 60.815 39.496 1.126 7.629 0.225 9.646-5.612 15.708-9.871 9.871-20.644 9.421-31.201-1.126-12.339-12.339-15.483-13.466-19.978-6.738-3.369 4.936-3.369 7.854-1.352 20.419 1.352 8.305 1.567 16.835 0.676 19.528-3.369 8.53-11.223 13.916-20.419 13.916-12.564 0-18.852-6.963-23.562-25.364-5.837-23.112-14.367-35.011-24.013-32.317-6.062 1.577-6.953 9.206-2.918 24.689 1.792 7.629 2.918 16.384 2.017 19.528-3.144 12.564-22.671 19.077-33.884 11.223-2.693-1.792-6.513-8.755-8.755-15.258-5.612-17.285-14.141-34.335-19.302-39.055-4.26-3.809-4.485-3.809-8.98 1.577-4.035 4.936-4.485 7.629-3.369 25.805 0.901 11.223 3.594 32.317 6.287 47.135 6.953 38.154 6.953 45.107-0.901 51.845-8.735 7.404-21.524 7.404-28.928-0.225z" />
<glyph unicode="&#xe908;" glyph-name="trc-pact" d="M680.653 784.794h-476.262c-11.571 0-20.89-9.318-20.89-20.89s9.318-20.89 20.89-20.89h476.262c11.571 0 20.89 9.318 20.89 20.89s-9.421 20.89-20.89 20.89zM701.542 614.195c0 11.571-9.318 20.89-20.89 20.89h-476.262c-11.571 0-20.89-9.318-20.89-20.89s9.318-20.89 20.89-20.89h476.262c11.469 0 20.89 9.318 20.89 20.89zM204.39 485.376c-11.571 0-20.89-9.318-20.89-20.89s9.318-20.89 20.89-20.89h305.664c11.571 0 20.89 9.318 20.89 20.89s-9.318 20.89-20.89 20.89h-305.664zM443.802 335.565h-239.411c-11.571 0-20.89-9.318-20.89-20.89s9.318-20.89 20.89-20.89h239.411c11.571 0 20.89 9.318 20.89 20.89s-9.318 20.89-20.89 20.89zM911.053 122.266h-53.453l-104.448 146.125c43.008 15.155 74.035 55.706 74.035 103.731 0 60.928-49.459 110.49-110.387 110.49s-110.387-49.562-110.387-110.49c0-48.026 31.027-88.576 74.035-103.731l-104.448-146.022h-53.453c-26.931 0-48.742-21.914-48.742-48.742v-78.541c0-26.931 21.914-48.742 48.742-48.742h388.608c26.931 0 48.742 21.914 48.742 48.742v78.541c-0.102 26.829-21.914 48.64-48.845 48.64zM648.090 372.122c0 37.786 30.72 68.608 68.608 68.608s68.608-30.822 68.608-68.608c0-37.581-30.413-68.198-67.994-68.608-0.41 0-0.819 0-1.331 0-37.376 0.41-67.891 30.925-67.891 68.608zM710.349 238.387l12.288 0.819 83.558-116.941h-178.893l83.046 116.122zM918.016-5.018c0-3.789-3.174-6.963-6.963-6.963h-388.608c-3.789 0-6.963 3.174-6.963 6.963v78.541c0 3.789 3.174 6.963 6.963 6.963h388.608c3.789 0 6.963-3.174 6.963-6.963v-78.541zM105.984 82.637v818.381c0 3.789 3.174 6.963 6.963 6.963h665.19c3.789 0 6.963-3.174 6.963-6.963v-393.114c15.667-7.885 29.798-18.432 41.779-31.027v424.141c0 26.931-21.914 48.742-48.742 48.742h-665.19c-26.931 0-48.742-21.914-48.742-48.742v-818.381c0-26.931 21.914-48.742 48.742-48.742h318.976v39.629c0 0.717 0.205 1.434 0.205 2.15h-319.181c-3.686 0-6.963 3.174-6.963 6.963z" />
<glyph unicode="&#xe909;" glyph-name="trc-boost" d="M411.648 378.982l-351.232-351.232 18.842 181.862c0 12.595-6.246 18.842-18.842 25.088-12.493 0-18.842-6.246-25.088-18.842l-25.088-238.285c0-6.246 0-12.595 6.246-18.842s12.595-6.246 12.595-6.246v0l244.634 31.334c12.493 0 18.842 12.493 18.842 25.088s-12.595 18.842-25.088 18.842l-181.965-18.842 351.232 351.232c12.493 0 12.493 12.595 0 18.842-6.246 6.246-18.842 6.246-25.088 0v0zM91.75 905.83l181.862-18.842c12.595 0 18.842 6.246 25.088 18.842 0 12.595-6.246 18.842-18.842 25.088l-244.531 25.088c-6.246 0-12.595 0-18.842-6.246s-6.246-12.595-6.246-18.842l31.334-244.634c0-12.595 12.595-18.842 18.842-18.842v0c12.595 0 18.842 12.595 18.842 25.088l-18.842 188.211 351.232-351.232c6.246-6.246 12.493-6.246 12.493-6.246 6.246 0 12.595 0 12.595 6.246 12.493 6.246 12.493 18.842 0 31.334l-344.986 344.986zM963.584 241.050c-12.595 0-18.842-12.595-18.842-25.088l18.842-181.965-351.232 344.986c-6.246 6.246-18.842 6.246-31.334 0-12.595-6.246-6.246-18.842 6.246-31.334l351.232-351.232-181.862 18.842c-12.493 0-18.842-6.246-25.088-18.842 0-12.493 6.246-18.842 18.842-25.088l244.634-31.334c6.246 0 12.595 0 12.595 6.246 6.246 6.246 6.246 12.595 6.246 18.842l-31.334 244.634c-0.102 24.986-12.698 31.334-18.944 31.334v0zM599.859 523.264c6.246 0 12.493 0 12.493 6.246l351.232 351.232-18.842-181.862c0-12.595 6.246-18.842 18.842-25.088v0c12.493 0 18.842 6.246 18.842 18.842l31.334 238.285c0 6.246 0 12.595-6.246 18.842s-12.595 6.246-18.842 6.246l-244.634-31.334c-12.595 0-18.842-12.595-18.842-25.088 0-12.595 12.493-18.842 25.088-18.842l181.965 18.842-344.986-338.739c-12.595-12.493-12.595-25.088 0-31.334 0-6.246 6.246-6.246 12.595-6.246v0z" />
<glyph unicode="&#xe90a;" glyph-name="trc-drink" d="M721.101-53.76h-543.642c-25.088 0-41.779 16.691-41.779 41.779v710.861c0 25.088 16.691 41.779 41.779 41.779h543.539c25.088 0 41.779-16.691 41.779-41.779v-710.861c0.102-25.088-16.589-41.779-41.677-41.779zM219.341 29.901h459.981v627.2h-459.981v-627.2zM219.341 657.101c-71.066 0-125.44 54.374-125.44 125.44s54.374 125.44 125.44 125.44c33.485 0 62.771-12.595 87.757-33.485 16.691-16.691 16.691-41.779 0-58.573-16.691-16.691-41.779-16.691-58.573 0-8.397 4.198-16.691 8.397-29.286 8.397-25.088 0-41.779-16.691-41.779-41.779s16.691-41.779 41.779-41.779c25.088 0 41.779-16.691 41.779-41.779 0.102-25.19-16.589-41.882-41.677-41.882zM679.219 657.101c-25.088 0-41.779 16.691-41.779 41.779s16.691 41.779 41.779 41.779c25.088 0 41.779 16.691 41.779 41.779s-16.691 41.779-41.779 41.779c-12.493 0-25.088-4.198-29.286-12.595-16.691-16.691-41.779-20.89-58.573-4.198-16.691 16.691-20.89 41.779-4.198 58.573 25.088 29.286 58.573 41.779 96.154 41.779 71.066 0 125.44-54.374 125.44-125.44 0.102-70.963-58.368-125.235-129.536-125.235zM616.55 795.034c-12.493 0-25.088 4.198-33.485 16.691-16.691 16.691-41.779 16.691-58.573 4.198-16.691-16.691-41.779-16.691-58.573 0-16.691 16.691-16.691 41.779 0 58.573 50.176 45.978 138.035 41.779 179.814-8.397 16.691-16.691 12.595-45.978-4.198-58.573-4.096-8.294-16.691-12.493-24.986-12.493zM495.309 803.43c-16.691 0-29.286 8.397-37.581 20.89-12.595 25.088-41.779 41.779-75.264 41.779s-54.374-16.691-71.066-41.779c-8.397-20.89-33.485-29.286-54.374-16.691s-29.286 33.485-16.691 54.374c29.184 54.272 83.558 87.757 146.227 87.757s117.043-33.485 146.33-87.859c12.595-20.89 4.198-45.978-16.691-58.573-4.198 0.102-12.595 0.102-20.89 0.102zM888.32 448c-25.088 0-41.779 16.691-41.779 41.779 0 45.978-37.683 83.661-83.661 83.661-25.088 0-41.779 16.691-41.779 41.779s16.691 41.779 41.779 41.779c91.955 0 167.219-75.264 167.219-167.219 0-25.088-16.691-41.779-41.779-41.779zM762.88 573.44h-41.779c-25.088 0-41.779 16.691-41.779 41.779s16.691 41.779 41.779 41.779h41.779c25.088 0 41.779-16.691 41.779-41.779s-16.691-41.779-41.779-41.779zM762.88 197.12c-25.088 0-41.779 16.691-41.779 41.779s16.691 41.779 41.779 41.779c45.978 0 83.661 37.581 83.661 83.661 0 25.088 16.691 41.779 41.779 41.779s41.779-16.691 41.779-41.779c0-91.955-75.264-167.219-167.219-167.219zM762.88 197.12h-41.779c-25.088 0-41.779 16.691-41.779 41.779s16.691 41.779 41.779 41.779h41.779c25.088 0 41.779-16.691 41.779-41.779s-16.691-41.779-41.779-41.779zM888.32 322.56c-25.088 0-41.779 16.691-41.779 41.779v125.44c0 25.088 16.691 41.779 41.779 41.779s41.779-16.691 41.779-41.779v-125.44c0-25.088-16.691-41.779-41.779-41.779zM344.781 113.459c-25.088 0-41.779 16.691-41.779 41.779v376.422c0 25.088 16.691 41.779 41.779 41.779s41.779-16.691 41.779-41.779v-376.32c0-25.088-16.691-41.882-41.779-41.882zM553.779 113.459c-25.088 0-41.779 16.691-41.779 41.779v376.422c0 25.088 16.691 41.779 41.779 41.779s41.779-16.691 41.779-41.779v-376.32c0.102-25.088-16.691-41.882-41.779-41.882z" />
<glyph unicode="&#xe90b;" glyph-name="trc-umbrella" d="M550.4 842.342c0 41.062 0 65.946 0 65.946 0 22.221-18.022 40.55-40.346 40.55-22.426 0-40.55-18.33-40.55-40.55 0 0 0-24.986 0-66.355-250.47-19.558-448.717-211.763-459.264-453.325 0-3.891 2.355-7.27 6.042-8.499 3.686-0.922 7.578 0.819 9.318 4.198 27.443 52.429 87.040 86.426 151.757 86.426 73.626 0 137.83-42.291 159.642-104.755 2.355-6.451 13.107-6.451 15.258 0 17.818 50.381 62.566 86.835 117.453 99.635 0-179.098 0-376.32 0-376.32 0-34.099-27.443-61.338-61.44-61.338-33.894 0-61.338 27.238-61.338 61.338 0 22.221-18.227 40.448-40.448 40.448-22.323 0-40.346-18.227-40.346-40.448 0-78.336 63.795-142.234 142.234-142.234s142.336 63.898 142.336 142.234c0 0 0 198.144 0 377.242 56.934-11.571 103.526-49.050 121.549-100.659 1.024-3.482 4.198-5.53 7.475-5.53 3.379 0 6.451 2.048 7.68 5.53 21.914 62.464 86.221 104.755 159.744 104.755 64.717 0 124.109-34.099 151.552-86.426 1.946-3.482 5.734-5.222 9.318-4.198 3.789 1.126 6.144 4.608 5.939 8.499-10.65 242.995-210.944 436.019-463.565 453.837z" />
<glyph unicode="&#xe90c;" glyph-name="trc-dinner" d="M189.133 949.76c-49.869 0-116.019-134.349-116.019-236.851 0-67.584 22.63-104.243 56.422-121.446 27.238-13.926 43.213-43.11 40.243-73.523l-48.64-496.742c-1.843-19.149 4.403-38.298 17.408-52.531 12.902-14.234 31.334-22.426 50.586-22.426s37.683 8.090 50.586 22.426c12.902 14.234 19.251 33.28 17.408 52.531l-48.64 496.742c-2.97 30.413 13.005 59.699 40.243 73.523 33.792 17.203 56.422 53.862 56.422 121.446 0.102 102.502-63.488 236.851-116.019 236.851zM634.368 949.76c-9.216 0-16.589-7.475-16.589-16.691v-204.902c0-9.216-7.475-16.691-16.691-16.691s-16.691 7.475-16.691 16.691v204.902c0 9.216-7.475 16.691-16.589 16.691h-0.205c-9.216 0-16.589-7.475-16.589-16.691v-204.902c0-9.216-7.475-16.691-16.691-16.691s-16.691 7.475-16.691 16.691v204.902c0 9.216-7.475 16.691-16.589 16.691h-0.205c-9.216 0-16.589-7.475-16.589-16.691v-204.902c0-9.216-7.475-16.691-16.691-16.691s-16.691 7.475-16.691 16.691v204.902c0 9.216-7.475 16.691-16.589 16.691-8.704 0-15.77-7.066-15.77-15.77 0-51.917 0-214.221 0-221.082 0-67.584 22.63-104.243 56.422-121.446 27.238-13.926 43.213-43.11 40.243-73.523l-48.64-496.742c-1.843-19.149 4.403-38.298 17.408-52.531 12.902-14.234 31.334-22.426 50.586-22.426s37.683 8.090 50.586 22.426c12.902 14.234 19.251 33.28 17.408 52.531l-48.64 496.742c-2.97 30.413 13.005 59.699 40.243 73.523 33.792 17.203 56.422 53.862 56.422 121.446 0 6.861 0 169.267 0 221.082-0.41 8.704-7.475 15.77-16.179 15.77zM906.035 475.853c6.349 0 11.366 5.12 11.366 11.366v442.573c0 11.059-8.909 19.968-19.968 19.968-9.626 0-18.022-6.349-20.685-15.565l-69.325-241.562c-20.275-70.656-7.885-146.739 33.894-207.36 4.096-5.837 10.752-9.421 17.92-9.421l-44.544-454.758c-1.843-19.149 4.403-38.298 17.408-52.531 12.902-14.234 31.334-22.426 50.586-22.426s37.581 8.090 50.586 22.426c12.902 14.234 19.251 33.28 17.408 52.531l-44.646 454.758z" />
<glyph unicode="&#xe90d;" glyph-name="trc-dinner2" horiz-adv-x="605" d="M0 890.182v-279.273l116.364-116.364c0 0-11.636-132.701-11.636-256s11.636-302.545 11.636-302.545h46.545c0 0 11.636 180.177 11.636 302.545s-11.636 256-11.636 256l116.364 116.364v279.273l-46.545 69.818v-326.377l-69.818-66.513v392.89h-46.545v-392.89l-69.725 66.513v326.377l-46.639-69.818zM562.129 508.556c0 0 42.961 38.493 42.961 219.741 0 70.749-20.852 231.703-175.244 231.703v-474.903c0 0-10.938-137.263-10.938-251.671s10.938-297.425 10.938-297.425h43.799c0 0 10.938 177.943 10.938 297.425s-10.938 251.671-10.938 251.671 58.461-8.564 88.483 23.459z" />
<glyph unicode="&#xe90e;" glyph-name="trc-dinner3" horiz-adv-x="605" d="M518.097 507.997h43.194c0 0 43.799 22.807 43.799 220.3 0 70.749-20.852 231.703-175.244 231.703v-474.903c0 0-10.938-137.263-10.938-251.671s10.938-297.425 10.938-297.425h43.799c0 0 10.938 177.943 10.938 297.425s-10.938 251.671-10.938 251.671v428.87c0 0 87.599 0 87.599-185.716 0.047-193.629-43.148-220.253-43.148-220.253zM0 890.182v-279.273l116.364-116.364c0 0-11.636-132.701-11.636-256s11.636-302.545 11.636-302.545h46.545c0 0 11.636 180.177 11.636 302.545s-11.636 256-11.636 256l116.364 116.364v279.273l-46.545 69.818v-326.377l-93.091-88.716-92.998 88.716v326.377l-46.639-69.818zM116.364 960h46.545v-325.818h-46.545v325.818z" />
<glyph unicode="&#xe90f;" glyph-name="trc-dinner32" horiz-adv-x="605" d="M0 890.182v-279.273l116.364-116.364c0 0-11.636-132.701-11.636-256s11.636-302.545 11.636-302.545h46.545c0 0 11.636 180.177 11.636 302.545s-11.636 256-11.636 256l116.364 116.364v279.273l-46.545 69.818v-326.377l-69.818-66.513v392.89h-46.545v-392.89l-69.725 66.513v326.377l-46.639-69.818zM605.091 614.912c0 46.406-23.273 345.088-139.636 345.088s-139.636-298.682-139.636-345.088c0-92.858 116.364-121.856 116.364-121.856s-11.636-139.264-11.636-255.302c0-116.084 11.636-301.754 11.636-301.754h46.545c0 0 11.636 180.503 11.636 301.754 0 121.204-11.636 255.302-11.636 255.302s116.364 28.998 116.364 121.856z" />
<glyph unicode="&#xe910;" glyph-name="trc-dinner4" horiz-adv-x="605" d="M0 890.182v-279.273l116.364-116.364c0 0-11.636-132.701-11.636-256s11.636-302.545 11.636-302.545h46.545c0 0 11.636 180.177 11.636 302.545s-11.636 256-11.636 256l116.364 116.364v279.273l-46.545 69.818v-326.377l-93.091-88.716-92.998 88.716v326.377l-46.639-69.818zM605.091 614.912c0 46.406-23.273 345.088-139.636 345.088s-139.636-298.682-139.636-345.088c0-92.858 116.364-121.856 116.364-121.856s-11.636-139.264-11.636-255.302c0-116.084 11.636-301.754 11.636-301.754h46.545c0 0 11.636 180.503 11.636 301.754 0 121.204-11.636 255.302-11.636 255.302s116.364 28.998 116.364 121.856zM465.455 541.091c-108.73 0-107.473 72.751-93.091 186.182s60.276 186.182 93.091 186.182 79.127-76.055 93.091-186.182c13.964-110.127 15.639-186.182-93.091-186.182zM116.364 960h46.545v-325.818h-46.545v325.818z" />
<glyph unicode="&#xe911;" glyph-name="trc-glass" horiz-adv-x="680" d="M665.342 682.418c-25.894 100.043-68.106 203.945-131.469 276.42l-386.923 1.162c-63.922-72.522-106.458-176.981-132.445-277.582-53.462-206.594 41.003-354.614 281.208-370.466v-329.696h-118.685v-46.256h328.58v46.256h-119.196v329.835c238.532 16.643 332.299 163.965 278.93 370.327zM339.923 356.999c-234.302 0-331.276 117.104-280.418 313.797 25.383 98.091 62.341 182.56 108.783 242.112l343.735-0.604c46.209-59.505 83.028-143.742 108.271-241.507 50.998-196.971-45.884-313.797-280.372-313.797z" />
<glyph unicode="&#xe912;" glyph-name="trc-glass2" d="M817.408 682.667c21.589 172.501-21.632 277.333-21.632 277.333h-341.461c0 0-9.301-22.571-17.109-64h45.525c0.469 2.304 0.981 4.565 1.451 6.827 0.853 3.755 5.376 14.507 5.376 14.507h272.896c0 0 4.523-10.752 5.376-14.507 13.227-59.648 17.493-131.925 7.083-214.869-7.424-59.221-27.093-96.469-69.419-146.005-3.925-4.608-21.163-24.32-25.685-29.653-26.496-31.061-44.373-57.856-52.565-87.040-6.741 18.645-16.512 36.352-29.611 54.784-8.149-14.635-17.195-27.947-26.667-40.363 12.16-20.651 20.736-43.691 22.869-72.149v-260.864c0 0 0-20.309-17.536-27.904s-120.491-15.829-120.491-36.736 87.040-20.693 168.491-20.693 168.533-0.213 168.533 20.693-102.955 29.141-120.491 36.736-17.493 27.904-17.493 27.904l1.152 256c6.187 128 139.776 147.499 161.408 320zM240.981 874.667c0 0-43.221-104.832-21.589-277.333 21.333-170.283 151.765-191.488 161.067-315.093v-260.907c0 0 0-20.309-17.536-27.904s-120.491-15.829-120.491-36.736 87.083-20.693 168.533-20.693 168.533-0.213 168.533 20.693-102.955 29.141-120.491 36.736-17.493 27.904-17.493 27.904l1.152 256c6.187 128 139.776 147.499 161.365 320 21.632 172.501-21.589 277.333-21.589 277.333h-341.461zM549.077 832c0 0 4.523-10.752 5.376-14.507 13.227-59.648 17.493-131.925 7.083-214.869-7.424-59.221-27.093-96.469-69.419-146.005-3.925-4.608-21.163-24.32-25.685-29.653-26.496-31.061-44.373-57.856-52.565-87.040-10.581 29.184-28.459 55.936-54.955 87.040-4.565 5.333-21.76 25.088-25.685 29.653-42.325 49.536-61.995 86.784-69.419 146.005-10.411 82.944-6.187 155.221 7.040 214.869 0.853 3.755 5.376 14.507 5.376 14.507h272.853z" />
<glyph unicode="&#xe913;" glyph-name="trc-glass3" horiz-adv-x="433" d="M426.077 657.455c23.599 188.183-23.552 302.545-23.552 302.545h-372.364c0 0-47.151-114.362-23.552-302.545 23.273-185.763 165.562-208.896 175.709-343.738v-284.625c0 0 0-22.156-19.13-30.441s-131.444-17.268-131.444-40.076 94.999-22.575 183.855-22.575c88.855 0 183.855-0.233 183.855 22.575s-112.314 31.791-131.444 40.076c-19.084 8.285-19.084 30.441-19.084 30.441l1.117 279.273c6.749 139.636 152.483 160.908 176.035 349.091z" />
<glyph unicode="&#xe914;" glyph-name="trc-coffee" d="M493.056 192c80.151 0 165.562 36.305 225.885 117.155 4.887 0.047 12.288 0.652 23.599 2.234 36.119 5.073 110.127 34.211 140.195 54.505 19.084 12.893 51.619 41.286 64.791 67.817 9.914 19.968 18.432 46.825 14.895 72.471-3.584 25.647-18.944 93.324-88.809 102.26-34.816 4.468-58.554 1.35-73.635-2.886-0.14 11.636-0.559 23.552-1.21 35.747-45.94-44.358-165.469-76.009-305.711-76.009s-259.817 31.651-305.711 76.055c-17.687-318.371 153.46-449.35 305.711-449.35zM797.231 533.923c22.342 18.060 61.766 40.634 101.981 19.177 15.639-8.332 33.094-34.164 26.391-67.258-6.749-33.094-46.033-69.306-76.847-83.921-30.394-14.429-63.86-19.13-88.343-20.387 18.479 42.822 31.465 93.417 36.817 152.39zM0 146.385c0-23.273 23.273-23.273 23.273-23.273h977.455c0 0 23.273 0 23.273 23.273s-23.273 23.273-23.273 23.273h-977.455c0 0-23.273 0-23.273-23.273zM795.601 680.727c0-51.413-135.454-93.091-302.545-93.091s-302.545 41.678-302.545 93.091c0 51.413 135.454 93.091 302.545 93.091s302.545-41.678 302.545-93.091z" />
<glyph unicode="&#xe915;" glyph-name="trc-coffee2" d="M0 146.385c0-23.273 23.273-23.273 23.273-23.273h977.455c0 0 23.273 0 23.273 23.273s-23.273 23.273-23.273 23.273h-977.455c0 0-23.273 0-23.273-23.273zM718.895 309.155c4.887 0.047 12.288 0.652 23.599 2.234 36.119 5.073 110.127 34.211 140.195 54.505 19.084 12.893 51.619 41.286 64.791 67.817 9.914 19.968 18.432 46.825 14.895 72.471s-18.897 93.324-88.762 102.26c-34.816 4.468-58.601 1.35-73.635-2.886-0.279 24.204-1.722 49.524-4.375 76.102-1.676 50.967-136.471 92.16-302.545 92.16s-300.87-41.193-302.545-92.16v0c-35.002-347.695 144.058-489.658 302.545-489.658 80.151 0 165.516 36.305 225.839 117.155zM797.231 533.923c22.342 18.060 61.766 40.634 101.981 19.177 15.639-8.332 33.094-34.164 26.391-67.258-6.749-33.094-46.033-69.306-76.847-83.921-30.394-14.429-63.86-19.13-88.343-20.387 18.479 42.822 31.465 93.417 36.817 152.39zM493.056 727.273c141.405 0 256-20.852 256-46.545s-114.595-46.545-256-46.545c-141.359 0-256 20.852-256 46.545s114.595 46.545 256 46.545zM233.193 633.018c52.829-27.183 149.411-45.382 259.863-45.382 110.871 0 207.825 18.339 260.515 45.708 10.007-278.854-137.309-393.868-260.189-393.868-122.833 0-270.057 114.921-260.189 393.542z" />
<glyph unicode="&#xe916;" glyph-name="trc-cocktail" horiz-adv-x="890" d="M881.921 735.43c15.75 20.517 7.431 37.109-18.508 37.109h-392.027l-4.019 0.514h-125.254l-86.229 177.366c-1.916 5.281-7.945 9.581-13.647 9.581h-232.047c-5.608 0-10.189-4.533-10.189-10.235v-21.779c0-5.655 4.58-10.189 10.095-10.189h204.94c5.562 0 11.637-4.253 13.554-9.768l65.478-134.975h-60.384l-0.654-0.514h-93.146c-25.518 0-33.884-16.965-18.461-37.95l352.348-477.976-4.627-279.485h-101.886v-41.128h254.855v41.128h-112.121l4.627 279.485 367.303 478.817z" />
<glyph unicode="&#xe917;" glyph-name="trc-cocktail2" horiz-adv-x="890" d="M342.112 773.053l-86.276 177.366c-1.869 5.281-7.898 9.581-13.6 9.581h-232.047c-5.608 0-10.189-4.533-10.189-10.235v-21.779c0-5.655 4.58-10.189 10.095-10.189h204.94c5.562 0 11.591-4.253 13.554-9.768l65.478-134.975h-60.384v-0.514h-93.8c-25.518 0-33.884-16.965-18.461-37.95l352.348-477.976-4.627-279.485h-101.886v-41.128h254.855v41.128h-112.121l4.627 279.485 367.35 478.817c15.75 20.517 7.431 37.109-18.508 37.109h-396.093v0.514h-125.254zM813.218 726.317l-0.561-0.748h6.029l-70.619-86.136-250.321-333.746-315.472 420.63h630.945z" />
<glyph unicode="&#xe918;" glyph-name="trc-pizza" d="M211.389 400.807l738.304-446.197-17.319 862.475c-92.917-18.922-258.894-61.262-398.692-141.98s-259.428-203.331-322.293-274.298zM871.379 284.294c16.829-29.117 7.88-65.759-19.99-81.831-27.826-16.072-64.067-5.521-80.851 23.597s-7.836 65.759 19.99 81.831c27.826 16.117 64.022 5.521 80.851-23.597zM755.979 639.443c27.826 16.072 64.067 5.521 80.851-23.597 16.829-29.117 7.88-65.759-19.99-81.831s-64.067-5.521-80.851 23.597c-16.785 29.117-7.836 65.759 19.99 81.831zM662.394 374.539c16.829-29.117 7.88-65.759-19.99-81.831-27.826-16.072-64.067-5.521-80.851 23.597s-7.836 65.759 19.99 81.831c27.826 16.072 64.022 5.521 80.851-23.597zM550.778 567.853c27.871 16.072 64.067 5.521 80.851-23.597s7.88-65.759-19.99-81.831c-27.871-16.072-64.067-5.521-80.851 23.597s-7.836 65.759 19.99 81.831zM462.67 798.119c-199.413-115.133-373.626-323.361-373.626-323.361l89.133-53.871c7.925 9.082 132.185 169.672 336.317 287.477 204.088 117.849 407.285 145.586 417.124 147.501l-2.093 104.136c0 0-267.442-46.748-466.855-161.881z" />
<glyph unicode="&#xe919;" glyph-name="trc-pizza2" d="M883.979 241.33c0-33.809-27.408-61.217-61.217-61.217s-61.217 27.408-61.217 61.217c0 33.809 27.408 61.217 61.217 61.217s61.217-27.408 61.217-61.217zM460.889 786.632c-209.252-120.832-394.106-335.872-394.106-335.872l91.581-53.114c8.37 9.394 18.12 20.079 28.984 31.744l-55.385 30.72c0 0 138.374 169.316 352.568 292.998s432.44 160.234 432.44 160.234l-2.182-66.649c12.511 2.849 23.997 5.343 34.282 7.48l-0.267 105.828c0 0-278.617-52.58-487.914-173.368zM854.372 577.781c0-33.809-27.408-61.217-61.217-61.217s-61.217 27.408-61.217 61.217c0 33.809 27.408 61.217 61.217 61.217s61.217-27.408 61.217-61.217zM639.911 501.070c0-33.809-27.408-61.217-61.217-61.217s-61.217 27.408-61.217 61.217c0 33.809 27.408 61.217 61.217 61.217s61.217-27.408 61.217-61.217zM668.627 329.127c0-33.809-27.408-61.217-61.217-61.217s-61.217 27.408-61.217 61.217c0 33.809 27.408 61.217 61.217 61.217s61.217-27.408 61.217-61.217zM192.423 377.878l758.339-439.786-1.692 876.633c-96.835-21.014-270.069-67.183-416.768-151.864-146.655-84.68-273.23-211.612-339.879-284.984zM908.199 745.183l1.781-736.345-636.839 369.664c0 0 112.106 147.367 281.734 245.315s353.325 121.366 353.325 121.366z" />
<glyph unicode="&#xe91a;" glyph-name="trc-unlocked" horiz-adv-x="745" d="M606.813 587.729v128.465c0 0 0 243.805-234.449 243.805-109.009 0-167.145-52.783-198.191-109.149-35.514-64.512 11.031-80.384 37.469-29.37 24.343 46.918 71.028 91.974 160.721 91.974 187.159 0 187.904-197.26 187.904-197.26v-128.465h46.545zM325.818 217.228v-86.202c0 0 0.14-48.78 46.639-48.78 46.452 0.047 46.452 48.78 46.452 48.78v86.202c27.834 16.849 46.545 48.361 46.545 84.48 0 53.853-41.658 97.513-93.091 97.513s-93.091-43.66-93.091-97.513c0-36.073 18.711-67.631 46.545-84.48zM0 539.183v-554.729c0-26.764 20.713-48.454 46.592-48.454h651.543c25.74 0 46.592 21.69 46.592 48.454v554.729c0 26.764-20.713 48.454-46.592 48.454h-651.543c-25.74 0-46.592-21.69-46.592-48.454zM698.182 541.091v-560.78h-651.636v560.78h651.636z" />
<glyph unicode="&#xe91b;" glyph-name="trc-unlocked2" horiz-adv-x="745" d="M606.813 587.729v128.465c0 0 0 243.805-234.449 243.805-109.009 0-167.145-52.783-198.191-109.149-35.514-64.512 11.031-80.384 37.469-29.37 24.343 46.918 71.028 91.974 160.721 91.974 187.159 0 187.904-197.26 187.904-197.26v-128.465h46.545zM0 539.183v-554.729c0-26.764 20.713-48.454 46.592-48.454h651.543c25.74 0 46.592 21.69 46.592 48.454v554.729c0 26.764-20.713 48.454-46.592 48.454h-651.543c-25.74 0-46.592-21.69-46.592-48.454zM372.364 399.22c51.386 0 93.091-43.66 93.091-97.513 0-36.119-18.711-67.631-46.545-84.48v-86.202c0 0 0-48.78-46.452-48.78-46.499 0.047-46.639 48.78-46.639 48.78v86.202c-27.834 16.849-46.545 48.361-46.545 84.48 0 53.853 41.658 97.513 93.091 97.513z" />
<glyph unicode="&#xe91c;" glyph-name="trc-audio" d="M152.381 291.962l384-234.057v780.19l-384-234.057h-101.571c-50.81 0-50.81-52.029-50.81-52.029v-208.067c0 0 0-52.029 50.81-52.029h101.571zM48.762 555.179h103.473l335.384 185.393v-585.143l-335.384 189.342h-103.473v210.408zM585.143 258.365v-54.174c0 0 146.286 60.611 146.286 243.81s-146.286 243.81-146.286 243.81v-54.174c0 0 97.524-41.35 97.524-189.635s-97.524-189.635-97.524-189.635zM877.714 171.032v-64.366c0 0 146.286 70.168 146.286 341.333s-146.286 341.333-146.286 341.333v-63.293c0 0 97.524-53.833 97.524-278.040s-97.524-276.968-97.524-276.968zM731.429 217.161v-61.733c0 0 146.286 80.457 146.286 292.571s-146.286 292.571-146.286 292.571v-59.685c0 0 97.524-63.439 97.524-232.887s-97.524-230.839-97.524-230.839z" />
<glyph unicode="&#xe91d;" glyph-name="trc-mute" d="M698.182 448.372v0c-0.186 174.545-139.636 232.355-139.636 232.355v-51.712c0 0 79.034-33.513 91.462-149.504l48.175-31.139zM512 568.692v251.671l-200.378-122.135 46.685-30.208 107.148 59.252v-128.512zM829.021 363.799c5.539 25.228 8.797 53.248 8.797 84.201 0 202.473-139.636 279.273-139.636 279.273v-56.972c0 0 93.091-60.556 93.091-222.301 0-20.713-1.536-39.703-4.189-57.111l41.937-27.089zM91.322 736.489l910.057-599.226 25.414 39.005-910.057 599.226zM698.182 227.654v-58.927c0 0 36.492 20.061 72.145 66.746l-38.167 24.669c-18.385-22.668-33.978-32.489-33.978-32.489zM558.545 266.985v-51.712c0 0 60.137 24.948 101.469 91.462l-36.724 23.738c-27.369-47.616-64.745-63.488-64.745-63.488zM0 547.281v-198.609c0 0 0-49.664 48.5-49.664h96.954l366.545-223.372v326.796l-46.545 30.068v-263.773l-320.14 180.736h-98.769v200.844h98.769l74.333 41.1-40.448 26.112-33.745-20.573h-96.954c-48.5 0-48.5-49.664-48.5-49.664zM837.818 122.182c0 0 21.644 10.38 47.849 38.726l-41.612 26.903c-3.91-2.932-6.237-4.189-6.237-4.189v-61.44zM954.089 282.95c13.964 43.52 23.366 97.839 23.366 165.050 0 258.839-139.636 325.818-139.636 325.818v-60.416c0 0 93.091-51.386 93.091-265.402 0-57.53-6.749-103.284-16.57-139.357l39.75-25.693z" />
<glyph unicode="&#xe91e;" glyph-name="trc-mute2" d="M829.021 363.799c5.539 25.228 8.797 53.248 8.797 84.201 0 202.473-139.636 279.273-139.636 279.273v-56.972c0 0 93.091-60.556 93.091-222.301 0-20.713-1.536-39.703-4.189-57.111l41.937-27.089zM698.182 448.372v0c-0.186 174.545-139.636 232.355-139.636 232.355v-51.712c0 0 79.034-33.513 91.462-149.504l48.175-31.139zM954.089 282.95c13.964 43.52 23.366 97.839 23.366 165.050 0 258.839-139.636 325.818-139.636 325.818v-60.416c0 0 93.091-51.386 93.091-265.402 0-57.53-6.749-103.284-16.57-139.357l39.75-25.693zM91.322 736.489l910.057-599.226 25.414 39.005-910.057 599.226zM311.622 698.228l200.378-129.536v251.671zM837.818 122.182c0 0 21.644 10.38 47.849 38.726l-41.612 26.903c-3.91-2.932-6.237-4.189-6.237-4.189v-61.44zM0 547.281v-198.609c0 0 0-49.664 48.5-49.664h96.954l366.545-223.372v326.796l-332.8 215.087-33.745-20.573h-96.954c-48.5 0-48.5-49.664-48.5-49.664zM558.545 266.985v-51.712c0 0 60.137 24.948 101.469 91.462l-36.724 23.738c-27.369-47.616-64.745-63.488-64.745-63.488zM698.182 227.654v-58.927c0 0 36.492 20.061 72.145 66.746l-38.167 24.669c-18.385-22.668-33.978-32.489-33.978-32.489z" />
<glyph unicode="&#xe91f;" glyph-name="trc-music" d="M1024 448c0 282.764-229.236 512-512 512s-512-229.236-512-512c0-282.764 229.236-512 512-512s512 229.236 512 512zM46.545 448c0 257.071 208.384 465.455 465.455 465.455s465.455-208.384 465.455-465.455-208.384-465.455-465.455-465.455c-257.071 0-465.455 208.384-465.455 465.455zM536.111 263.354c0.977 3.863 1.443 10.985 1.443 21.411v18.479l-0.372 321.024c17.408-11.59 40.867-22.249 70.377-31.93 28.998-9.914 43.52-22.714 43.52-38.447 0-10.147-5.679-22.388-17.036-36.631l9.076-14.895c29.975 29.277 44.963 54.784 44.963 76.521 0 33.373-31.791 59.625-95.418 78.708-18.618 5.818-31.279 11.59-37.888 17.408-6.656 5.818-12.753 16.198-18.339 31.185l-22.109-1.071v-406.993c-24.902 21.504-50.641 32.303-77.265 32.303-29.51 0-54.831-5.818-76.009-17.408s-31.744-25.647-31.744-42.077c0-39.191 33.745-58.787 101.19-58.787 29.743 0 53.853 4.887 72.378 14.708 18.572 9.821 29.603 21.969 33.233 36.492z" />
<glyph unicode="&#xe920;" glyph-name="trc-music2" d="M1024 448c0 282.764-229.236 512-512 512s-512-229.236-512-512c0-282.764 229.236-512 512-512s512 229.236 512 512zM430.545 212.201c-67.491 0-101.19 19.596-101.19 58.787 0 16.431 10.566 30.487 31.744 42.077s46.499 17.408 76.009 17.408c26.624 0 52.364-10.752 77.265-32.303v406.993l22.109 1.071c5.539-14.988 11.683-25.367 18.292-31.185 6.656-5.818 19.27-11.59 37.888-17.408 63.581-19.084 95.418-45.335 95.418-78.708 0-21.783-14.988-47.29-44.963-76.521l-9.076 14.895c11.357 14.289 17.036 26.484 17.036 36.631 0 15.732-14.522 28.532-43.52 38.447-29.51 9.681-52.969 20.294-70.377 31.93l0.372-321.024v-18.479c0-10.38-0.465-17.548-1.443-21.411-3.631-14.522-14.708-26.671-33.187-36.445-18.479-9.868-42.636-14.755-72.378-14.755z" />
<glyph unicode="&#xe921;" glyph-name="trc-music3" d="M676.212 370.641c-12.055 5.027-27.089 7.54-42.636 7.54-9.542 0-27.601-5.539-39.145-11.543-21.551-11.543-34.63-30.115-34.63-49.664 0-10.519 4.515-22.063 11.031-30.115 8.518-9.542 22.063-14.522 40.122-14.522 21.551 0 44.125 9.542 62.185 25.6 16.57 15.546 25.088 35.607 25.088 60.695v317.021l-291.421-70.749v-304.966c-10.054 4.515-24.064 7.028-39.61 7.028-9.542 0-19.549-2.001-30.58-6.516-27.601-11.031-44.637-31.604-44.637-54.179 0-10.519 4.515-22.063 11.031-30.115 8.518-9.542 22.575-14.522 40.634-14.522 29.603 0 66.234 21.551 77.731 46.639 4.003 9.030 7.54 26.577 7.54 39.145v244.271l247.296 61.719v-222.767zM1024 448c0 282.764-229.236 512-512 512s-512-229.236-512-512c0-282.764 229.236-512 512-512s512 229.236 512 512zM46.545 448c0 257.071 208.384 465.455 465.455 465.455s465.455-208.384 465.455-465.455-208.384-465.455-465.455-465.455c-257.071 0-465.455 208.384-465.455 465.455z" />
<glyph unicode="&#xe922;" glyph-name="trc-music4" d="M1024 448c0 282.764-229.236 512-512 512s-512-229.236-512-512c0-282.764 229.236-512 512-512s512 229.236 512 512zM428.916 287.372c0-12.521-3.491-30.115-7.54-39.145-11.543-25.088-48.175-46.639-77.731-46.639-18.060 0-32.116 5.027-40.634 14.522-6.516 8.006-11.031 19.549-11.031 30.115 0 22.575 17.036 43.148 44.637 54.179 11.031 4.515 21.085 6.516 30.58 6.516 15.546 0 29.603-2.513 39.61-7.028v305.012l291.468 70.749v-317.021c0-25.088-8.518-45.149-25.088-60.695-18.060-16.058-40.634-25.6-62.185-25.6-18.060 0-31.604 5.027-40.122 14.522-6.516 8.006-11.031 19.549-11.031 30.115 0 19.549 13.033 38.121 34.63 49.664 11.543 6.004 29.603 11.543 39.145 11.543 15.546 0 30.58-2.513 42.636-7.54v222.72l-247.343-61.673v-244.317z" />
<glyph unicode="&#xe923;" glyph-name="trc-compass" d="M1024 448c0 282.764-229.236 512-512 512s-512-229.236-512-512c0-282.764 229.236-512 512-512s512 229.236 512 512zM46.545 448c0 257.071 208.384 465.455 465.455 465.455s465.455-208.384 465.455-465.455-208.384-465.455-465.455-465.455c-257.071 0-465.455 208.384-465.455 465.455zM594.292 530.292l-329.169 164.492 164.585-329.076 329.076-164.585-164.492 329.169zM467.084 401.268l-126.324 216.204 216.716-124.369-90.391-91.834z" />
<glyph unicode="&#xe924;" glyph-name="trc-compass2" d="M467.084 401.268l90.391 91.834-216.716 124.369zM1024 448c0 282.764-229.236 512-512 512s-512-229.236-512-512c0-282.764 229.236-512 512-512s512 229.236 512 512zM265.123 694.784l329.169-164.538 164.492-329.169-329.076 164.585-164.585 329.123z" />
<glyph unicode="&#xe925;" glyph-name="trc-add" d="M535.273 145.455v279.273h279.273v46.545h-279.273v279.273h-46.545v-279.273h-279.273v-46.545h279.273v-279.273zM1024 448c0 282.764-229.236 512-512 512s-512-229.236-512-512c0-282.764 229.236-512 512-512s512 229.236 512 512zM46.545 448c0 257.071 208.384 465.455 465.455 465.455s465.455-208.384 465.455-465.455-208.384-465.455-465.455-465.455c-257.071 0-465.455 208.384-465.455 465.455z" />
<glyph unicode="&#xe926;" glyph-name="trc-add2" d="M1024 448c0 282.764-229.236 512-512 512s-512-229.236-512-512c0-282.764 229.236-512 512-512s512 229.236 512 512zM209.455 424.727v46.545h279.273v279.273h46.545v-279.273h279.273v-46.545h-279.273v-279.273h-46.545v279.273h-279.273z" />
<glyph unicode="&#xe927;" glyph-name="trc-locked2" horiz-adv-x="745" d="M606.813 587.729v128.465c0 0 0 243.805-234.449 243.805-233.705 0-233.705-242.781-233.705-242.781v-129.489h46.545v129.489c0 0 0 196.236 187.159 196.236s187.904-197.26 187.904-197.26v-128.465h46.545zM0 539.183v-554.729c0-26.764 20.713-48.454 46.592-48.454h651.543c25.74 0 46.592 21.69 46.592 48.454v554.729c0 26.764-20.713 48.454-46.592 48.454h-651.543c-25.74 0-46.592-21.69-46.592-48.454zM698.182 541.091v-560.78h-651.636v560.78h651.636zM325.818 217.228v-86.202c0 0 0.14-48.78 46.639-48.78s46.452 48.78 46.452 48.78v86.202c27.834 16.849 46.545 48.361 46.545 84.48 0 53.853-41.658 97.513-93.091 97.513s-93.091-43.66-93.091-97.513c0-36.073 18.711-67.631 46.545-84.48z" />
<glyph unicode="&#xe928;" glyph-name="trc-locked22" horiz-adv-x="745" d="M0 539.183v-554.729c0-26.764 20.713-48.454 46.592-48.454h651.543c25.74 0 46.592 21.69 46.592 48.454v554.729c0 26.764-20.713 48.454-46.592 48.454h-651.543c-25.74 0-46.592-21.69-46.592-48.454zM372.364 399.22c51.386 0 93.091-43.66 93.091-97.513 0-36.119-18.711-67.631-46.545-84.48v-86.202c0 0 0-48.78-46.499-48.78-46.452 0.047-46.592 48.78-46.592 48.78v86.202c-27.834 16.849-46.545 48.361-46.545 84.48 0 53.853 41.658 97.513 93.091 97.513zM606.813 587.729v128.465c0 0 0 243.805-234.449 243.805-233.705 0-233.705-242.781-233.705-242.781v-129.489h46.545v129.489c0 0 0 196.236 187.159 196.236s187.904-197.26 187.904-197.26v-128.465h46.545z" />
<glyph unicode="&#xe929;" glyph-name="trc-placeholder2" horiz-adv-x="698" d="M535.273 657.455c0-102.825-83.356-186.182-186.182-186.182s-186.182 83.356-186.182 186.182c0 102.825 83.356 186.182 186.182 186.182s186.182-83.356 186.182-186.182zM349.091 960c-233.612 0-349.091-162.816-349.091-363.66s349.091-660.34 349.091-660.34 349.091 459.497 349.091 660.34c0 200.844-115.479 363.66-349.091 363.66zM46.545 593.92c0 177.99 110.359 322.327 302.545 322.327s302.545-144.291 302.545-322.327-302.545-585.309-302.545-585.309-302.545 407.273-302.545 585.309z" />
<glyph unicode="&#xe92a;" glyph-name="trc-placeholder" horiz-adv-x="698" d="M349.091 960c-233.612 0-349.091-162.816-349.091-363.66s349.091-660.34 349.091-660.34 349.091 459.497 349.091 660.34c0 200.844-115.479 363.66-349.091 363.66zM349.091 471.273c-102.819 0-186.182 83.363-186.182 186.182s83.363 186.182 186.182 186.182 186.182-83.363 186.182-186.182c0-102.819-83.363-186.182-186.182-186.182z" />
<glyph unicode="&#xe92b;" glyph-name="trc-circular" d="M541.789 477.463c0 0 98.397 263.633 181.015 181.015s-181.015-181.015-181.015-181.015l82.292-16.477c0 0 266.426 95.604 131.398 230.633s-230.121-131.91-230.121-131.91l16.431-82.246zM535.273 704v162.909h-46.545v-162.909l23.273-46.545zM665.786 307.386c-14.15 59.252-83.968 117.341-83.968 117.341l-46.545-23.273c0 0 71.866-69.585 80.943-115.107 14.15-70.842 124.276-138.24 124.276-138.24l-21.737 55.11h61.021c0 0-99.887 44.963-113.99 104.169zM535.273 448c0-12.853-10.42-23.273-23.273-23.273s-23.273 10.42-23.273 23.273c0 12.853 10.42 23.273 23.273 23.273s23.273-10.42 23.273-23.273zM674.909 424.727h256v46.545h-186.182zM1024 448c0 282.764-229.236 512-512 512s-512-229.236-512-512c0-282.764 229.236-512 512-512s512 229.236 512 512zM46.545 448c0 257.071 208.384 465.455 465.455 465.455s465.455-208.384 465.455-465.455-208.384-465.455-465.455-465.455-465.455 208.384-465.455 465.455zM400.244 461.312l82.292 16.477c0 0-263.633 98.397-181.015 181.015s181.015-181.015 181.015-181.015l16.477 82.292c0 0-95.604 266.426-230.633 131.398-135.075-135.075 131.863-230.167 131.863-230.167zM535.273 285.091l-23.273 46.545-23.273-46.545v-256h46.545zM279.273 471.273h-186.182v-46.545h256zM497.664 401.455l-46.545 23.273c0 0-69.818-58.089-83.968-117.341s-113.99-104.215-113.99-104.215h61.021l-21.737-55.11c0 0 110.127 67.398 124.276 138.24 9.076 45.568 80.943 115.153 80.943 115.153z" />
<glyph unicode="&#xe92c;" glyph-name="trc-circular2" d="M722.804 658.479c-82.618 82.618-181.015-181.015-181.015-181.015s263.633 98.397 181.015 181.015zM1024 448c0 282.764-229.236 512-512 512s-512-229.236-512-512c0-282.764 229.236-512 512-512s512 229.236 512 512zM740.538 148.108c0 0-110.127 67.398-124.276 138.24-9.123 45.521-80.989 115.107-80.989 115.107l46.545 23.273c0 0 69.818-58.089 83.968-117.341s113.99-104.215 113.99-104.215h-61.021l21.783-55.063zM512 424.727c-12.847 0-23.273 10.426-23.273 23.273s10.426 23.273 23.273 23.273c12.847 0 23.273-10.426 23.273-23.273s-10.426-23.273-23.273-23.273zM930.909 471.273v-46.545h-256l69.818 46.545h186.182zM755.433 691.665c135.028-135.028-131.398-230.633-131.398-230.633l-82.292 16.477-16.431 82.292c0-0.047 95.092 266.892 230.121 131.863zM488.727 866.909h46.545v-162.909l-23.273-46.545-23.273 46.545v162.909zM268.335 691.433c135.028 135.028 230.633-131.398 230.633-131.398l-16.477-82.292-82.292-16.477c0.047 0.047-266.892 95.139-131.863 230.167zM93.091 424.727v46.545h186.182l69.818-46.545h-256zM292.399 148.108l21.737 55.11h-60.975c0 0 99.887 44.963 113.99 104.215 14.15 59.206 83.968 117.295 83.968 117.295l46.545-23.273c0 0-71.866-69.585-80.943-115.107-14.196-70.842-124.323-138.24-124.323-138.24zM488.727 285.091l23.273 46.545 23.273-46.545v-256h-46.545v256zM301.521 658.804c-82.618-82.618 181.015-181.015 181.015-181.015s-98.397 263.633-181.015 181.015z" />
<glyph unicode="&#xe92d;" glyph-name="trc-pencil" d="M1024 448c0 282.764-229.236 512-512 512s-512-229.236-512-512c0-282.764 229.236-512 512-512s512 229.236 512 512zM46.545 448c0 257.071 208.384 465.455 465.455 465.455s465.455-208.384 465.455-465.455-208.384-465.455-465.455-465.455c-257.071 0-465.455 208.384-465.455 465.455zM753.199 614.493c0 0 10.752 50.641-8.006 65.35l-36.678 28.672c-18.665 14.615-65.35-8.006-65.35-8.006l-28.672-36.678 110.033-85.969 28.672 36.631zM673.652 584.983l-263.587-337.361-41.286-15.081 4.608 43.753 263.587 337.361-36.678 28.672-272.244-348.486-2.281-116.317 112.314 30.348 272.244 348.486z" />
<glyph unicode="&#xe92e;" glyph-name="trc-pencil2" d="M1024 448c0 282.764-229.236 512-512 512s-512-229.236-512-512c0-282.764 229.236-512 512-512s512 229.236 512 512zM643.165 700.416c0 0 46.639 22.621 65.35 8.006l36.678-28.625c18.804-14.662 8.006-65.35 8.006-65.35l-28.672-36.678-110.033 85.969 28.672 36.678zM325.772 177.524l2.281 116.364 272.244 348.439 36.678-28.672-263.587-337.361-4.655-43.753 41.332 15.081 263.587 337.361 36.678-28.672-272.244-348.439-112.314-30.348z" />
<glyph unicode="&#xe92f;" glyph-name="trc-clockwise" horiz-adv-x="1117" d="M1001 378.023l116.395 139.674h-97.819c-34.081 249.784-248.295 442.302-507.437 442.302-282.841 0-512.14-229.299-512.14-512.14 0-277.347 220.453-503.201 495.705-511.86v46.558c-249.505 8.66-449.146 213.655-449.146 465.302 0 257.141 208.441 465.582 465.582 465.582 233.396 0 426.659-171.753 460.367-395.744h-87.902l116.395-139.674z" />
<glyph unicode="&#xe930;" glyph-name="trc-clockwise2" horiz-adv-x="1117" d="M977.721 354.744l139.674 162.954h-97.865c-34.034 249.784-248.248 442.302-507.391 442.302-282.841 0-512.14-229.299-512.14-512.14 0-277.347 220.453-503.201 495.705-511.86v93.163c-223.805 8.613-402.588 192.797-402.588 418.697 0 231.441 187.583 419.023 419.023 419.023 207.649 0 379.961-150.988 413.25-349.186h-87.343l139.674-162.954z" />
<glyph unicode="&#xe931;" glyph-name="trc-refreshing" d="M577.071 908.893l40.215 40.215c-163.468 34.211-340.433-12.148-467.316-139.078-177.478-177.478-197.446-452.794-59.857-652.288l-71.82-71.773 181.015-16.477-16.431 181.015-59.252-59.252c-119.715 180.736-99.98 426.636 59.252 585.868 107.473 107.473 254.464 151.412 394.193 131.77zM972.8 842.938l-181.062 16.477 16.477-181.015 64.186 64.186c149.783-182.831 139.357-453.073-31.279-623.709-121.391-121.391-293.19-161.745-448.047-120.972l-37.516-37.516c176.78-56.553 378.228-14.708 518.516 125.58 188.835 188.835 199.308 488.541 31.418 689.711l67.305 67.258z" />
<glyph unicode="&#xe932;" glyph-name="trc-right" d="M433.943 691.433l-65.815-65.815 197.167-197.213-181.015-181.015 66.141-66.095 246.831 246.831zM1024 448c0 282.764-229.236 512-512 512s-512-229.236-512-512c0-282.764 229.236-512 512-512s512 229.236 512 512zM46.545 448c0 257.071 208.384 465.455 465.455 465.455s465.455-208.384 465.455-465.455-208.384-465.455-465.455-465.455c-257.071 0-465.455 208.384-465.455 465.455z" />
<glyph unicode="&#xe933;" glyph-name="trc-right2" d="M581.818 261.818h46.545l139.636 186.182-139.636 186.182h-46.545l128-163.002h-453.818v-46.452h453.818zM1024 448c0 282.764-229.236 512-512 512s-512-229.236-512-512c0-282.764 229.236-512 512-512s512 229.236 512 512zM46.545 448c0 257.071 208.384 465.455 465.455 465.455s465.455-208.384 465.455-465.455-208.384-465.455-465.455-465.455c-257.071 0-465.455 208.384-465.455 465.455z" />
<glyph unicode="&#xe934;" glyph-name="trc-share" d="M512 949.76c-277.094 0-501.76-224.666-501.76-501.76s224.666-501.76 501.76-501.76c277.094 0 501.76 224.666 501.76 501.76s-224.666 501.76-501.76 501.76zM512-5.734c-250.573 0-453.734 203.162-453.734 453.734s203.162 453.734 453.734 453.734c250.573 0 453.734-203.162 453.734-453.734s-203.162-453.734-453.734-453.734zM668.365 330.65c11.571 0 22.426-2.15 32.461-6.349s18.842-10.138 26.419-17.715c7.578-7.578 13.517-16.384 17.715-26.419s6.349-20.89 6.349-32.461c0-11.571-2.15-22.426-6.349-32.461s-10.138-18.842-17.715-26.419c-7.578-7.578-16.384-13.517-26.419-17.715s-20.89-6.349-32.461-6.349c-11.571 0-22.426 2.15-32.461 6.349s-18.842 10.138-26.419 17.715c-7.578 7.578-13.517 16.384-17.715 26.419s-6.349 20.89-6.349 32.461v5.018c0 1.536 0.205 2.97 0.717 4.403 0 1.741 0.102 3.482 0.307 5.018s0.512 2.97 1.024 4.301l-203.674 118.477c-3.994-3.584-8.192-6.861-12.39-9.728s-8.806-5.222-13.722-7.066c-4.915-2.253-10.035-3.789-15.36-4.71s-10.957-1.331-16.691-1.331c-11.571 0-22.63 2.253-33.178 6.656-10.445 4.506-19.558 10.445-27.136 18.125-7.987 7.987-14.336 17.203-18.739 27.443-4.506 10.24-6.656 21.402-6.656 33.485 0 11.571 2.253 22.63 6.656 33.178 4.506 10.445 10.752 19.558 18.739 27.136 7.578 7.987 16.589 14.234 27.136 18.739 10.445 4.506 21.504 6.656 33.178 6.656 5.837 0 11.366-0.512 16.691-1.638s10.445-2.765 15.36-5.018c4.915-1.741 9.523-4.096 13.722-7.066 4.198-2.867 8.397-6.144 12.39-9.728l201.523 117.862c-0.41 1.331-0.819 2.867-1.024 4.71-0.205 1.741-0.614 3.379-1.024 4.71 0 1.741-0.102 3.584-0.307 5.325s-0.307 3.584-0.307 5.325c0 11.571 2.253 22.63 6.656 33.178 4.506 10.445 10.752 19.558 18.739 27.136 7.578 7.578 16.589 13.722 27.136 18.432 10.445 4.71 21.504 7.066 33.178 7.066 11.571 0 22.63-2.355 33.178-7.066 10.445-4.71 19.558-10.854 27.136-18.432 7.987-7.578 14.234-16.589 18.739-27.136 4.506-10.445 6.656-21.504 6.656-33.178 0-12.083-2.253-23.347-6.656-33.792-4.506-10.445-10.752-19.558-18.739-27.136-7.578-7.578-16.589-13.619-27.136-18.125-10.445-4.506-21.504-6.656-33.178-6.656-5.837 0-11.366 0.41-16.691 1.331s-10.445 2.458-15.36 4.71c-4.915 1.741-9.523 4.096-13.722 7.066-4.198 2.867-8.397 6.144-12.39 9.728l-201.626-117.248c0.41-1.741 0.819-3.482 1.024-5.018s0.512-3.277 1.024-5.018c0-1.741 0.102-3.482 0.307-5.018s0.307-3.277 0.307-5.018c0-1.741-0.102-3.584-0.307-5.325s-0.307-3.584-0.307-5.325c-0.41-1.331-0.819-2.867-1.024-4.71-0.205-1.741-0.614-3.379-1.024-4.71l203.571-118.477c3.584 3.072 7.578 6.042 12.083 8.704s8.909 5.12 13.414 7.373c4.915 1.741 9.933 3.072 15.053 3.994 5.018 0.819 10.342 1.331 15.667 1.331v0z" />
<glyph unicode="&#xe935;" glyph-name="trc-arrow-left" d="M1024 448c0 282.764-229.236 512-512 512s-512-229.236-512-512c0-282.764 229.236-512 512-512s512 229.236 512 512zM550.307 691.433l66.095-66.095-180.969-181.062 197.167-197.167-65.815-65.815-263.308 263.308 246.831 246.831z" />
<glyph unicode="&#xe936;" glyph-name="trc-reserve" d="M512 949.76c-277.094 0-501.76-224.666-501.76-501.76s224.666-501.76 501.76-501.76c277.094 0 501.76 224.666 501.76 501.76s-224.666 501.76-501.76 501.76zM833.434 460.288h-249.446v-90.317h249.446v-112.538h-249.446v-109.67h-120.832v109.67h-249.446v112.538h249.446v90.317h-249.446v113.357h232.96l-202.957 178.176h142.746l137.011-115.405 137.011 115.405h142.746l-202.957-178.176h232.96v-113.357z" />
<glyph unicode="&#xe937;" glyph-name="trc-check" d="M511.936 960c-282.781 0-511.936-229.347-511.936-511.936 0-282.845 229.155-512.064 511.936-512.064 282.845 0 511.936 229.219 511.936 512.064 0 282.589-229.091 511.936-511.936 511.936zM545.788 248.345l-147.95-148.013-148.141 148.013-171.051 171.243 148.013 148.077 171.179-171.179 399.182 399.118 148.077-148.013-399.31-399.246z" />
<glyph unicode="&#xe938;" glyph-name="trc-alarm" d="M299.983 922.502c-33.158 42.472-94.598 49.932-136.826 16.92l-77.044-60.172c-42.423-33.109-49.737-94.549-16.677-136.875l29.989-38.376 230.546 180.126-15.019 19.163-14.97 19.212zM72.119 437.224c0-147.31 72.558-277.65 183.93-357.278l-96.792-96.354 34.133-33.987 104.399 103.96c63.098-35.157 135.802-55.198 213.187-55.198 75.825 0 147.115 19.212 209.335 53.053l102.254-101.815 34.133 33.987-94.306 93.915c113.323 79.336 187.441 210.895 187.441 359.717 0 242.395-196.462 438.857-438.857 438.857-242.347 0-438.857-196.51-438.857-438.857zM559.738 437.614v-48.957h-0.244v-0.195h-48.518v0.195h-195.048v48.957h195.048v292.181h48.518v-292.181h0.244zM937.545 723.212l14.97 19.212c33.158 42.472 25.551 103.863-16.677 136.875l-76.995 60.172c-42.423 33.109-103.814 25.405-136.826-16.92l-29.989-38.376 230.546-180.175 14.97 19.212z" />
<glyph unicode="&#xe939;" glyph-name="trc-zoom" d="M397.988 960c-219.783 0-397.988-178.205-397.988-397.988s178.205-397.988 397.988-397.988c84.514 0 162.894 26.361 227.321 71.263v0.047l295.167-295.167c5.478-5.478 14.187-5.619 19.806 0l79.551 79.551c5.478 5.478 5.197 14.562 0 19.806l-295.12 295.12c44.902 64.474 71.263 142.854 71.263 227.368 0 219.783-178.205 397.988-397.988 397.988zM397.988 257.668c-168.091 0-304.344 136.252-304.344 304.344s136.252 304.344 304.344 304.344 304.344-136.252 304.344-304.344c0-168.091-136.252-304.344-304.344-304.344zM421.399 725.889h-46.822v-140.466h-140.466v-46.822h140.466v-140.466h46.822v140.466h140.466v46.822h-140.466z" />
<glyph unicode="&#xe93a;" glyph-name="trc-aspect" d="M1024 960l-1024-349.091 512-161.001 162.909-513.908z" />
<glyph unicode="&#xe93b;" glyph-name="trc-first" d="M511.872 960c-282.681 0-511.872-229.191-511.872-511.872 0-282.809 229.191-512.128 511.872-512.128 282.809 0 512 229.319 512 512.128 0 282.681-229.191 511.872-512 511.872zM858.729 343.322h-241.988v-241.924h-209.484v241.924h-242.051v209.42h242.051v242.051h209.42v-242.051h241.988v-209.42z" />
<glyph unicode="&#xe93c;" glyph-name="trc-configuration" d="M46.474 564.3c-25.679 0-46.474-20.655-46.474-46.52v-139.56c0-25.679 20.608-46.52 46.474-46.52h136.304c4.14-11.723 8.885-23.12 14.235-34.239l-96.436-96.39c-18.143-18.143-18.282-47.45 0.047-65.733l98.716-98.716c18.143-18.189 47.45-18.282 65.733-0.047l96.622 96.622c11.025-5.257 22.376-9.955 34.006-14.049v-136.629c0-25.679 20.655-46.474 46.52-46.474h139.56c25.679 0 46.52 20.608 46.52 46.474v136.816c11.583 4.094 22.888 8.792 33.867 14.049l96.762-96.762c18.143-18.143 47.45-18.282 65.733 0.047l98.716 98.716c18.189 18.143 18.282 47.497 0.047 65.733l-96.762 96.762c5.257 10.979 9.955 22.283 14.049 33.867h136.816c25.679 0 46.474 20.655 46.474 46.52v139.56c0 25.679-20.608 46.52-46.474 46.52h-136.629c-4.094 11.63-8.792 22.981-14.049 34.006l96.576 96.622c18.143 18.143 18.282 47.45-0.047 65.733l-98.716 98.716c-18.189 18.189-47.497 18.282-65.733 0.047l-96.39-96.436c-11.072 5.303-22.516 10.095-34.239 14.235v136.304c0 25.679-20.655 46.474-46.52 46.474h-139.56c-25.679 0-46.52-20.608-46.52-46.474v-136.118c-11.77-4.14-23.26-8.885-34.378-14.235l-96.25 96.204c-18.143 18.143-47.45 18.282-65.733-0.047l-98.716-98.669c-18.143-18.143-18.282-47.45-0.047-65.733l96.25-96.25c-5.35-11.165-10.095-22.609-14.235-34.378h-136.118zM511.721 680.88c128.442 0 232.6-104.158 232.6-232.6s-104.158-232.6-232.6-232.6c-128.442 0-232.6 104.158-232.6 232.6s104.158 232.6 232.6 232.6z" />
<glyph unicode="&#xe93d;" glyph-name="trc-dollar" horiz-adv-x="745" d="M645.073 269.638c-58.182-88.809-158.627-147.456-272.71-147.456-114.129 0-214.528 58.647-272.71 147.456-38.028 32.628-70.144 72.006-94.487 116.224 29.556-176.081 182.691-310.225 367.197-310.225 184.46 0 337.641 134.144 367.197 310.225-24.343-44.218-56.46-83.596-94.487-116.224zM372.364-17.455c-114.129 0-214.528 58.647-272.71 147.456-38.028 32.628-70.144 72.006-94.487 116.224 29.556-176.081 182.691-310.225 367.197-310.225 184.46 0 337.641 134.144 367.197 310.225-24.343-44.218-56.46-83.596-94.487-116.224-58.182-88.809-158.627-147.456-272.71-147.456zM409.74 600.204c-7.401 5.306-16.71 10.938-28.020 16.943-13.033 6.889-21.737 12.893-26.019 17.92-4.375 5.12-6.563 11.59-6.563 19.363 0 8.518 2.7 15.639 8.099 21.318s12.241 8.518 20.433 8.518c13.265 0 23.971-8.751 32.163-26.252l27.276 17.873c-6.33 13.359-13.033 23.226-20.015 29.696s-16.012 10.705-26.996 12.8v32.163h-24.436v-32.163c-7.587-2.281-14.336-5.446-20.294-9.495s-10.985-8.844-15.034-14.336-7.168-11.729-9.309-18.479c-2.141-6.796-3.212-14.103-3.212-21.969 0-16.617 4.515-30.906 13.591-42.822 5.679-8.006 17.594-16.71 35.7-26.252 8.751-4.701 15.965-9.030 21.597-13.033s9.914-7.587 12.8-10.752c5.679-6.563 8.518-15.267 8.518-26.065 0-12.148-3.398-22.063-10.193-29.696-6.889-7.773-15.5-11.636-25.74-11.636-10.519 0-18.991 3.398-25.321 10.193-6.051 7.121-11.171 18.991-15.407 35.607l-30.813-7.633c4.561-23.505 11.636-40.913 21.271-52.177 9.588-11.264 23.552-18.665 41.844-22.156v-32.954h24.483v33.978c15.779 4.934 28.346 14.429 37.795 28.532 9.495 14.196 14.243 30.627 14.243 49.199 0 18.897-5.26 35.049-15.825 48.407-3.724 4.934-9.263 10.054-16.617 15.36zM372.364 960c-205.638 0-372.364-166.726-372.364-372.364s166.726-372.364 372.364-372.364c205.638 0 372.364 166.726 372.364 372.364s-166.726 372.364-372.364 372.364zM372.364 261.818c-179.945 0-325.818 145.873-325.818 325.818s145.873 325.818 325.818 325.818 325.818-145.873 325.818-325.818c0-179.945-145.873-325.818-325.818-325.818z" />
<glyph unicode="&#xe93e;" glyph-name="trc-buycar2" d="M253.645 590.336l-57.958-57.856 47.923-48.026 57.958 57.958c19.558-13.312 41.882-22.63 66.048-27.238v-82.022h67.891v82.022c24.064 4.608 46.49 13.926 66.15 27.238l57.958-57.958 47.923 48.026-57.856 57.856c13.312 19.661 22.63 42.086 27.238 66.15h82.022v67.891h-82.022c-4.608 24.064-13.824 46.49-27.238 66.15l57.856 57.754-48.026 48.128-57.958-57.856c-19.558 13.312-42.086 22.528-66.15 27.238v82.022h-67.789v-82.022c-24.064-4.71-46.592-14.029-66.15-27.341l-57.958 57.958-47.923-48.128 57.958-57.856c-13.312-19.661-22.733-41.984-27.238-66.15h-82.227v-67.891h82.227c4.608-23.962 14.029-46.387 27.341-66.048zM401.715 757.658c36.966 0 67.072-30.003 67.072-67.072 0-37.171-30.106-67.174-67.072-67.174s-67.174 30.003-67.174 67.174c0 36.966 30.106 67.072 67.174 67.072zM1011.302 879.206c-6.861 18.33-27.443 27.648-45.773 20.787l-186.88-70.554c-10.24-3.891-18.125-12.288-21.402-22.733l-136.192-436.736c-92.979 0-404.992 0-445.747 0-12.8 44.339-95.027 330.65-95.027 330.65-5.53 18.842-25.293 29.798-44.134 24.371-18.944-5.427-29.901-25.19-24.371-44.134l102.502-356.352c4.403-15.258 18.33-25.907 34.202-25.907h451.482c-9.728-33.587-22.323-77.005-28.365-97.997-47.411 0-427.52 0-427.52 0-19.661 0-35.533-15.872-35.533-35.635s15.872-35.533 35.533-35.533h454.246c15.872 0 29.798 10.445 34.406 25.6l48.947 169.267c0 0.102 0 0.307 0 0.41 3.584 11.366 129.024 413.696 138.547 444.109 27.136 10.24 170.598 64.41 170.598 64.41 14.234 5.427 23.040 19.046 23.040 33.382-0.102 4.198-0.922 8.499-2.56 12.595zM670.72 26.829c0-43.49-35.256-78.746-78.746-78.746s-78.746 35.256-78.746 78.746c0 43.49 35.256 78.746 78.746 78.746s78.746-35.256 78.746-78.746zM241.562 26.829c0-43.49-35.256-78.746-78.746-78.746s-78.746 35.256-78.746 78.746c0 43.49 35.256 78.746 78.746 78.746s78.746-35.256 78.746-78.746z" />
<glyph unicode="&#xe93f;" glyph-name="trc-notepad" d="M462.131 948.675c-9.994-1.567-28.826-9.216-38.82-15.688-13.527-9.021-28.426-26.071-34.109-39.014l-4.506-10.588h-47.442c-47.247 0-47.442 0-52.931-4.7l-5.489-4.7-0.584-53.719c-0.389-29.409 0-55.48 0.584-58.030 0.584-2.355 2.744-6.083 4.905-8.233 3.922-3.922 7.444-3.922 194.683-3.922 189 0 190.761 0 195.072 3.922 2.355 2.161 4.7 6.083 5.294 8.428s0.983 28.426 0.584 57.836l-0.584 53.719-5.489 4.7c-5.489 4.7-5.683 4.7-52.941 4.905h-47.442l-5.683 12.155c-11.172 23.532-37.253 44.114-65.29 51.364-10.404 2.744-28.242 3.523-39.813 1.567zM508.795 908.677c16.271-8.428 27.648-21.76 33.72-39.803 2.355-7.25 6.083-14.121 8.428-15.882 3.533-2.355 12.544-2.939 49.797-2.939h45.681v-66.662h-335.258v66.662h45.681c52.347 0 52.347 0 57.252 16.077 12.554 42.547 56.269 62.147 94.7 42.547zM464.097 879.073c-10.199-5.294-15.288-11.766-17.644-22.354-2.355-9.994 0.584-20.582 7.844-29.020 7.844-8.827 15.493-11.766 27.648-10.588 17.838 1.761 29.215 14.51 29.215 32.932 0 14.121-7.25 25.098-19.405 30.188-10.998 4.332-17.275 3.942-27.658-1.157zM109.23 880.251c-28.621-7.649-53.914-33.137-61.563-61.952-3.133-11.366-3.328-44.114-2.744-409.559l0.584-397.015 7.25-14.705c9.216-18.627 25.487-34.703 44.114-43.52l13.332-6.277 490.732-0.973 5.489 4.71c7.055 5.878 7.639 16.855 1.178 23.327l-4.506 4.311-486.994 1.966-9.021 5.294c-9.8 5.683-19.21 15.483-24.699 25.682-3.338 5.868-3.533 27.238-3.533 403.272v397.015l5.294 9.216c3.133 4.905 9.021 12.155 13.527 16.077 14.316 12.155 19.405 12.943 81.562 12.943h55.675l4.7 4.905c8.233 8.038 6.083 20.582-4.311 26.071-6.666 3.717-112.138 2.929-126.065-0.788zM721.91 881.029c-10.199-5.489-12.155-18.033-3.922-26.071l4.71-4.905h55.675c65.485 0 69.007-0.788 84.89-16.466 17.644-17.838 16.466 1.372 16.466-252.518v-223.314l4.905-4.71c8.038-8.233 20.582-6.072 26.071 4.311 1.761 3.133 2.355 61.563 2.355 227.625 0 213.893-0.195 224.092-3.727 235.459-8.827 28.621-32.154 51.364-60.774 59.802-8.622 2.55-21.176 3.133-66.662 3.133-36.854-0.184-57.436-0.778-59.986-2.345zM121.59 814.766c-2.355-0.983-5.683-3.922-7.455-6.472-2.744-4.311-2.939-41.175-2.55-375.050l0.584-370.35 4.311-9.216c5.1-10.783 16.466-23.921 26.276-30.188 17.254-10.793 11.182-10.588 224.492-10.588 125.471 0 198.41 0.788 201.738 1.956 6.666 2.55 11.571 13.527 9.021 20.388-4.516 11.561 7.649 10.977-208.015 10.977-187.034 0-197.427 0.195-204.882 3.727-9.411 4.311-13.527 8.622-17.644 18.432-2.55 6.277-2.939 47.053-2.939 361.134v353.884h90.378l4.7 4.905c7.25 7.055 6.666 16.865-1.178 23.327l-6.083 5.1-53.135-0.195c-29.389-0.010-55.276-0.788-57.62-1.772zM721.91 814.377c-9.994-5.878-11.96-18.237-3.922-26.071l4.71-4.905h90.388v-425.646l4.905-4.71c8.038-8.233 20.582-6.072 26.071 4.311 1.761 3.133 2.355 61.174 2.355 225.853v221.553l-4.71 5.489-4.7 5.489-55.675 0.389c-39.629 0.399-56.678 0.010-59.423-1.751zM250.399 610.867c-5.294-5.294-6.666-12.544-3.533-18.821 3.922-8.622 10.199-10.588 32.348-10.588 18.627 0 20.388 0.389 25.876 5.1 7.844 6.472 8.428 16.271 1.178 23.327-4.506 4.7-5.878 4.905-28.426 4.905-20.777 0-23.921-0.389-27.443-3.922zM384.297 610.478c-2.15-2.55-4.7-6.472-5.294-8.827-1.761-5.878 3.727-15.882 9.8-18.227 2.939-1.178 58.819-1.956 139.981-1.956 81.172 0 137.042 0.788 139.981 1.956 4.905 1.761 10.977 10.977 10.977 16.466 0 1.567-2.355 5.489-5.1 8.827l-5.1 6.083h-281.324l-3.922-4.321zM249.61 508.723c-6.666-7.844-6.472-14.51 0.584-21.565 5.683-5.489 6.277-5.683 26.665-5.683 21.565 0 30.587 2.355 33.137 8.827 2.55 6.861 1.178 14.899-3.727 19.61-4.506 4.71-5.878 4.905-28.232 4.905h-23.327l-5.1-6.093zM384.502 510.095c-4.116-3.533-5.489-6.277-5.489-11.96s1.372-8.428 5.489-11.96l5.294-4.7h244.675l5.294 4.7c7.639 6.472 7.639 17.449 0 23.921l-5.294 4.7h-244.685l-5.284-4.7zM250.194 409.129c-3.338-3.533-5.683-7.844-5.683-10.977s2.355-7.444 5.683-10.977c5.683-5.683 6.072-5.683 28.621-5.683 21.565 0 22.938 0.195 27.443 4.905 4.905 4.71 6.277 12.749 3.727 19.61-2.55 6.472-11.571 8.827-33.137 8.827-20.378-0.020-20.961-0.215-26.655-5.704zM384.502 410.112c-4.116-3.533-5.489-6.277-5.489-11.96s1.372-8.428 5.489-11.96l5.294-4.71h311.337l5.294 4.71c7.649 6.472 7.649 17.449 0 23.921l-5.294 4.7h-311.347l-5.284-4.7zM254.31 312.279c-10.199-5.1-12.155-18.627-3.922-26.86 3.533-3.533 6.666-3.922 27.443-3.922 22.548 0 23.921 0.195 28.426 4.905 8.233 8.038 6.083 20.582-4.311 26.071-5.868 3.133-41.359 2.939-47.636-0.195zM387.635 312.279c-10.199-5.1-11.766-17.449-3.533-26.276l4.116-4.506h214.487l3.922 4.506c2.15 2.355 4.71 6.277 5.294 8.632 1.761 5.683-3.144 14.899-9.605 17.838-7.455 3.523-207.821 3.328-214.682-0.195zM772.884 312.863c-32.348-4.311-66.263-19.016-92.15-39.803-28.815-23.132-51.753-58.225-62.147-94.495-3.922-13.527-4.506-20.193-4.506-48.036s0.584-34.509 4.506-47.841c19.415-67.246 69.018-114.893 137.236-131.942 19.804-5.1 65.085-4.506 85.279 0.983 17.644 4.905 43.919 16.66 57.641 26.071 13.527 9.216 36.864 32.154 46.858 46.275 28.621 39.997 40.192 93.716 30.198 141.752-5.294 25.876-13.332 45.292-27.648 66.662-38.42 57.436-107.633 89.201-175.268 80.374zM830.126 276.593c70.584-16.271 120.576-83.517 115.671-155.075-2.939-40.581-18.821-73.912-49.213-102.144-16.66-15.483-41.953-29.409-63.519-34.898-76.462-19.21-154.685 24.115-180.173 99.983-4.905 14.316-5.294 18.237-5.489 46.070 0 29.020 0.389 31.171 6.277 47.636 26.47 74.506 100.577 115.876 176.445 98.427zM817.582 141.906l-37.642-37.642-21.371 20.972c-20.193 19.804-21.76 20.982-29.409 20.982-6.277 0-8.827-1.178-11.96-5.1-8.622-10.977-6.666-14.705 24.904-47.247 39.997-41.175 31.57-42.742 91.361 16.865l46.858 46.858-1.178 7.649c-1.567 9.216-7.455 14.316-16.865 14.316-6.666-0.010-9.605-2.56-44.698-37.652zM254.31 211.497c-12.943-6.666-12.349-23.532 1.372-29.215 5.294-2.355 12.349-2.939 26.276-2.355 17.060 0.584 19.61 1.178 24.115 5.294 7.055 6.666 7.055 17.254 0 23.921-4.506 4.311-7.055 4.7-24.904 5.294-16.271 0.399-21.361-0.184-26.86-2.939zM388.413 212.091c-14.316-6.277-12.544-26.081 2.55-30.587 5.1-1.567 29.604-1.956 75.284-1.567 64.891 0.584 68.229 0.788 72.346 4.506 9.994 9.021 8.428 22.743-3.133 27.648-9.411 3.922-138.025 3.922-147.046 0z" />
<glyph unicode="&#xe940;" glyph-name="trc-service" d="M162.202 391.27c-8.294-8.294-22.323-7.68-31.437 1.331l-113.357 113.357c-9.011 9.011-9.626 23.142-1.331 31.437l50.074 50.074c8.294 8.294 22.323 7.68 31.334-1.331l113.459-113.459c9.011-9.011 9.626-23.142 1.434-31.437l-50.176-49.971zM103.936 572.416l27.443 27.75 97.997-97.178-27.443-27.75-97.997 97.178zM466.739 693.555l-221.491-221.491-146.842 146.739 221.491 221.491 146.842-146.739zM388.813 629.146l110.285-108.646-90.112-91.546-110.285 108.646 90.112 91.546zM335.053 822.989c0 0 57.037 43.418 105.574 50.483 48.538 7.168 85.504-25.293 85.504-25.293l-108.851-111.411-82.227 86.221zM615.322 584.192c0 0-49.664 107.418 8.704 175.309 70.349 81.92 110.080 101.069 110.080 101.069s85.914 37.99 147.661-11.264l-130.355-129.946 100.659-101.069 130.458 129.946c0 0 57.037-86.323 17.306-141.21s-108.442-117.862-108.442-117.862-64.307-65.638-168.858-8.192l-462.029-451.584c0 0-44.646-24.576-80.998 20.070-36.25 44.646-5.837 88.064-5.837 88.064l441.651 446.669zM544.563 257.229l128.717 128.717 238.387-222.822-141.722-141.722-225.382 235.827z" />
<glyph unicode="&#xe941;" glyph-name="trc-calendar" horiz-adv-x="999" d="M816.144 830.748v104.066c0 13.839 7.916 25.186 17.713 25.186s17.824-11.348 17.824-25.186v-104.066c0-13.894-8.026-25.242-17.824-25.242-9.742 0-17.713 11.348-17.713 25.242zM491.325 805.506c9.798 0 17.824 11.348 17.824 25.242v104.066c0 13.839-8.026 25.186-17.824 25.186s-17.769-11.348-17.769-25.186v-104.066c0-13.894 8.026-25.242 17.769-25.242zM157.705 805.506c9.798 0 17.769 11.348 17.769 25.242v104.066c0 13.839-7.971 25.186-17.769 25.186s-17.769-11.348-17.769-25.186v-104.066c-0.055-13.894 7.971-25.242 17.769-25.242zM998.592 714.836h-1.273c0.664-4.096 1.273-8.303 1.273-12.676v-688.719c0-42.512-34.098-77.441-75.669-77.441h-847.254c-41.626 0-75.669 34.873-75.669 77.441v688.719c0 4.373 0.554 8.58 1.273 12.676h-1.273v98.641c0 44.173 34.043 80.208 75.669 80.208h43.287v-62.938c0-25.795 16.994-46.055 38.693-46.055 21.644 0 38.637 20.26 38.637 46.055v62.938h256.457v-62.938c0-25.795 16.994-46.055 38.582-46.055 21.644 0 38.693 20.26 38.693 46.055v62.938h265.258v-62.938c0-25.795 16.994-46.055 38.582-46.055 21.699 0 38.693 20.26 38.693 46.055v62.938h50.372c41.626 0 75.669-36.036 75.669-80.208v-98.641zM930.617 67.301l-0.055 628.216c0 6.753-1.218 13.174-2.878 19.319h-866.074c-1.661-6.2-2.823-12.565-2.823-19.319v-628.216c0-38.969 29.725-70.743 66.038-70.743h739.7c36.368 0 66.093 31.773 66.093 70.743zM136.061 521.261l18.654-85.024 92.442 43.951h1.55v-383.938h109.546v484.627h-93.161l-129.031-59.617zM679.253 190.907h-0.111l44.726 37.309c70.854 62.606 129.031 127.481 129.031 209.461 0 87.238-59.672 151.394-169.993 151.394-64.875 0-122.278-22.363-158.037-49.985l32.050-80.485c25.352 18.654 61.886 39.523 103.623 39.523 55.908 0 79.046-31.275 79.046-70.798-0.72-56.627-52.199-111.152-158.812-206.527l-61.886-55.963v-68.584h343.75v93.272h-183.389v1.384z" />
<glyph unicode="&#xe942;" glyph-name="trc-packets" d="M504.525 654.541c2.662-1.536 5.427-3.891 7.475-6.451 2.253 2.56 4.813 4.915 7.475 6.451l459.469 265.318c-16.998 14.234-38.81 22.733-62.669 22.733h-808.448c-23.962 0-45.67-8.602-62.669-22.835l459.366-265.216zM1013.76 847.053l-494.285-285.389c-2.662-1.638-5.222-2.253-7.475-2.15-2.048-0.102-4.813 0.512-7.475 2.15l-494.285 285.389c0-0.717 0-1.331 0-1.946v-794.317c0-53.862 43.725-97.485 97.587-97.485h808.346c54.067 0 97.485 43.52 97.485 97.485v794.317c0.102 0.717 0.102 1.331 0.102 1.946v0zM663.45 215.245c9.114-0.717 16.384-4.198 21.709-10.547 5.222-6.349 8.294-13.926 8.909-22.733-0.614-9.216-3.686-16.794-8.909-23.040-5.222-6.144-12.39-9.626-21.709-10.24l-101.478 0.512v-56.013c-1.638-30.003-17.92-44.851-49.254-44.851-15.462 0-27.443 3.686-36.25 11.059-8.602 7.475-13.21 18.739-13.824 33.894v54.989h-102.195c-9.421 0.717-16.794 4.608-21.914 11.878-5.018 7.27-8.090 15.36-9.216 24.166 1.126 8.806 4.198 15.974 9.216 21.709 5.12 5.632 12.493 8.704 21.914 9.421h102.195v33.28l-102.195 0.512c-9.421 0.717-16.794 4.096-21.914 10.035-5.018 6.042-8.090 13.619-9.216 22.835 1.126 8.806 4.198 15.974 9.216 21.606 5.12 5.632 12.493 8.909 21.914 9.523h76.186l-70.861 124.518c-3.584 4.198-6.861 9.523-10.035 16.077s-4.403 13.722-4.198 21.402c1.843 9.83 5.427 17.818 10.547 24.064 5.222 6.144 15.053 10.035 29.594 11.878 8.499-0.717 16.077-3.686 22.63-8.704 6.758-5.12 12.288-10.752 16.384-16.691l80.384-146.944 88.371 148.070c4.301 6.042 9.728 11.264 16.384 15.872s14.131 7.373 22.63 8.499c5.222-0.41 10.342-1.126 14.541-2.15 4.301-1.126 8.192-2.867 11.469-5.325 3.379-2.355 6.246-6.042 8.602-10.547 2.253-4.506 3.891-10.547 5.018-17.92 0-10.24-3.584-19.866-10.65-29.184l-81.715-133.222h77.619c9.318-0.614 16.384-3.891 21.709-9.523 5.222-5.53 8.294-12.8 8.909-21.606-0.614-9.216-3.686-16.998-9.216-23.347s-12.902-9.933-21.914-10.547l-100.966-0.512v-32.256l101.581 0.102z" />
<glyph unicode="&#xe943;" glyph-name="trc-coupon" d="M535.757 456.090c-7.168-9.318-15.053-18.227-23.45-26.522h90.010c1.843 0 3.686-0.102 5.427-0.307-8.499 8.294-15.974 17.306-22.323 26.829h-49.664zM512 949.76c-277.094 0-501.76-224.666-501.76-501.76s224.666-501.76 501.76-501.76c277.094 0 501.76 224.666 501.76 501.76s-224.666 501.76-501.76 501.76zM848.486 514.458h-2.048c-36.659 0-66.458-29.798-66.458-66.458s29.798-66.458 66.458-66.458h2.048v-138.957c0-26.317-21.402-47.718-58.88-47.718h-577.536c-15.053 0-36.454 21.402-36.454 47.718v138.957h2.048c36.659 0 66.458 29.798 66.458 66.458s-29.798 66.458-66.458 66.458h-2.048v138.957c0 26.317 21.402 47.718 36.454 47.718h577.536c37.478 0 58.88-21.402 58.88-47.718v-138.957zM786.125 659.251h-416.768v-40.346c0-7.373-6.042-13.414-13.414-13.414h-13.619c-7.373 0-13.414 6.042-13.414 13.414v40.346h-86.016c-11.674 0-25.702-17.818-25.702-28.979v-76.8c41.677-18.739 68.506-60.109 68.506-105.779 0-45.568-26.829-86.938-68.506-105.779v-76.8c0-11.674 12.698-28.979 24.064-28.979h87.757v40.346c0 7.373 6.042 13.414 13.414 13.414h13.619c7.373 0 13.414-6.042 13.414-13.414v-40.346h413.491c11.264 0 24.064 13.722 24.064 25.702l-3.277 81.51c-39.834 19.456-65.229 59.802-65.229 104.243 0 45.568 26.829 86.938 68.506 105.779v81.613c-0.102 11.366-9.216 24.269-20.89 24.269zM369.459 345.19c0-7.373-6.042-13.414-13.414-13.414h-13.619c-7.373 0-13.414 6.042-13.414 13.414v68.506c0 7.373 6.042 13.414 13.414 13.414h13.619c7.373 0 13.414-6.042 13.414-13.414v-68.506zM369.459 482.099c0-7.373-6.042-13.414-13.414-13.414h-13.619c-7.373 0-13.414 6.042-13.414 13.414v68.506c0 7.373 6.042 13.414 13.414 13.414h13.619c7.373 0 13.414-6.042 13.414-13.414v-68.506zM673.178 384.307l-1.946 0.922c-13.517 5.325-26.522 12.698-38.81 22.016 0.307-1.638 0.41-3.379 0.41-5.222v-27.136c0-28.262-14.234-43.213-41.062-43.213h-37.274l-6.861 20.582h38.912c13.312 0 19.456 6.861 19.456 21.606v21.914c0 9.114-4.096 13.21-13.21 13.21h-38.707c-7.578-36.454-33.075-64.717-75.878-84.173l-1.024-1.024-23.040 13.619 3.994 2.048c39.424 19.046 63.283 42.394 71.066 69.53h-40.653c-10.957-7.987-23.859-15.667-38.502-22.63l-1.638-1.126-14.95 17.613 2.867 1.434c28.979 13.517 52.224 30.925 69.12 51.712h-64.307v18.534h78.234c0.307 0.717 0.717 1.536 1.229 2.355 0.41 0.717 0.819 1.638 1.229 2.458l0.102 0.205c3.072 4.915 6.963 12.083 11.674 21.299h-82.022v18.534h42.291c-3.994 7.987-9.011 19.763-14.95 35.328l-1.434 3.379h23.962l0.512-1.024c0.819-1.024 1.638-2.458 2.355-4.71 7.066-16.691 12.288-27.75 15.667-32.87h21.094c5.734 13.619 10.445 28.467 13.824 44.032l0.512 1.946h24.166l-1.024-3.072c-3.891-15.462-8.090-29.901-12.493-42.906h31.949c7.27 10.138 14.336 22.221 20.89 36.045l0.512 1.536h25.293l-1.434-3.379c-3.277-7.168-9.83-18.637-19.661-34.202h44.954v-18.534h-109.568c-3.584-9.421-7.68-18.33-12.083-26.419h133.018v-18.534h-65.946c19.251-21.299 42.701-37.99 69.734-49.664l2.662-1.024-13.21-20.992z" />
<glyph unicode="&#xe944;" glyph-name="trc-newtga" d="M70.195 947.62c-18.033-4.311-35.881-17.060-46.459-33.526-15.688-24.115-17.838-52.931-5.683-77.824 5.673-11.96 35.471-42.342 433.838-440.904 264.468-264.663 431.892-430.909 438.948-435.61 13.138-8.827 20.982-11.571 38.226-13.138 35.092-3.133 69.99 20.982 80.773 55.869 3.922 12.36 3.922 19.22 3.922 393.462 0 418.161 0.584 396.595-11.766 430.909-17.838 49.203-61.952 93.317-111.155 111.155-34.499 12.349-12.544 11.766-431.688 11.571-214.282-0.195-384.645-0.983-388.956-1.966zM500.9 863.324c2.55-1.178 6.277-5.294 8.233-8.827l3.727-6.666-13.527-67.83c-7.455-37.448-13.916-70.185-14.51-73.124-0.584-3.922 8.428 3.922 39.014 34.304 29.798 29.409 41.564 39.793 46.264 40.776 13.916 3.133 28.037-10.783 25.088-24.893-1.956-9.216-132.332-139.581-141.548-141.548-8.827-1.761-19.016 3.533-23.132 11.96-3.133 6.472-2.744 8.622 10.783 76.851 7.649 38.42 14.51 71.752 15.094 73.912s-17.838-14.899-40.97-37.642c-37.642-37.448-42.742-41.759-48.425-41.759-13.332 0-21.76 9.021-21.76 23.132 0 6.861 3.328 10.394 68.219 75.284s68.424 68.219 75.284 68.219c3.932 0.010 9.421-0.973 12.165-2.15zM646.175 717.466c3.328-1.761 21.371-18.227 39.598-36.854 24.504-24.699 33.72-35.287 34.703-39.997 3.133-13.916-10.977-28.037-24.893-24.893-4.311 0.983-13.722 8.827-32.348 26.86l-26.081 25.682-32.154-32.154 14.121-14.111c15.688-16.077 18.227-20.193 18.227-29.010 0-8.622-10.977-19.61-19.61-19.61-8.827 0-12.943 2.55-29.010 18.227l-14.111 14.121-32.154-32.154 25.682-26.071c18.033-18.627 25.876-28.037 26.86-32.348 3.133-13.916-10.977-28.037-24.893-24.893-4.71 0.983-15.288 10.199-39.997 34.703-18.627 18.217-35.092 36.26-36.854 39.977-6.277 13.138-5.683 14.111 64.307 84.296 35.676 35.881 67.441 66.458 70.779 68.024 7.629 3.932 9.789 3.932 17.828 0.205zM752.824 611.799c5.878-3.133 9.994-10.394 9.994-18.033 0-2.55-14.121-32.932-31.365-67.441-17.254-34.509-30.781-62.73-29.798-62.73 0.788 0 18.627 5.683 39.598 12.739 20.982 7.055 41.165 12.739 44.698 12.739 9.605 0 18.033-9.021 18.033-19.016 0-4.116-5.683-24.699-12.739-45.681s-12.739-38.42-12.739-38.625c0-0.389 28.232 13.527 62.925 30.781 34.509 17.254 64.891 31.365 67.635 31.365 6.277 0 12.544-3.133 16.865-8.622 4.311-5.294 4.506-18.432 0.389-24.31-3.922-5.489-177.224-92.539-184.279-92.539-11.377 0-20.388 9.216-20.388 21.176 0 2.939 6.277 24.115 13.916 47.053 7.649 22.938 13.527 42.342 12.943 42.936-0.584 0.584-19.999-5.294-42.936-12.933-22.938-7.649-44.114-13.916-47.053-13.916-11.561 0-21.176 9.216-21.176 20.388 0 7.055 86.845 180.357 92.529 184.279 5.499 3.922 15.688 4.116 22.948 0.389z" />
<glyph unicode="&#xe945;" glyph-name="trc-recommend" d="M482.099 949.76l-471.859-472.371v-531.149l1003.52 1003.52h-531.661zM286.618 263.578c-2.56-4.71-11.674-15.36-20.275-23.859-1.331-1.331-2.867-2.867-12.493-11.981-6.963 6.451-10.138 8.602-19.968 13.21 8.806 6.246 16.384 12.698 21.811 18.125 9.626 9.626 10.65 12.698 5.222 18.125l-69.53 69.53c-6.246-13.517-10.138-22.63-12.186-26.726-3.686-7.782-5.734-13.005-8.090-18.944l-22.016 12.698c8.602 11.674 15.053 23.859 26.214 49.050l-59.494 59.597-16.077-16.077c-5.939-5.939-11.981-13.005-17.92-20.48l-17.408 17.408c7.782 5.734 13.517 10.342 20.992 17.92l15.872 15.872-24.883 24.883c-10.854 10.854-18.432 17.408-28.058 24.371l19.456 19.456c7.27-9.83 13.005-16.589 24.166-27.75l25.19-25.19 10.138 10.138c8.602 8.602 11.981 12.493 16.384 18.944l16.896-16.896c-6.451-4.915-11.162-9.114-18.739-16.589l-10.138-10.138 53.248-53.248c6.246 13.517 8.602 19.968 14.848 39.219l16.384-14.848c-7.578-20.992-10.342-28.058-15.36-40.243l79.462-79.462c9.011-9.011 11.059-17.306 6.349-26.112zM441.651 435.712l-95.539-95.539 13.722-13.722-17.408-17.408c-5.734 7.782-12.698 15.872-24.678 27.75l-108.749 108.749c-7.578 7.578-14.848 15.36-21.811 22.835 2.56-14.029 3.584-24.371 4.198-41.062-8.090 1.331-13.21 1.843-22.016 0.819 0.512 29.082-1.331 44.954-8.090 70.349-8.294 30.618-18.739 55.603-30.106 72.192l22.323 13.005c1.331-3.891 1.331-3.891 5.427-14.234 7.782-20.275 12.186-32.973 16.896-49.050l53.453 53.453c-18.739 9.318-35.533 15.36-57.139 21.299l8.090 19.456c26.726-8.090 45.158-15.053 65.126-24.678l17.408 17.408c10.65 10.65 19.251 20.275 24.166 27.238l17.613-17.613c-7.782-5.734-17.101-14.029-27.238-24.166l-29.594-29.594 37.683-37.683 26.931 26.931c10.342 10.342 18.944 19.968 23.142 26.214l17.101-17.101c-6.963-5.427-16.384-13.722-25.702-23.142l-27.238-27.238 39.219-39.219 27.238 27.238c10.854 10.854 18.944 19.968 22.835 26.010l17.408-17.408c-6.451-4.403-15.565-12.493-26.214-23.142l-27.034-27.034 40.755-40.755 33.485 33.485c13.005 13.005 20.275 21.299 24.371 27.546l17.408-17.408c-8.192-6.144-15.462-12.902-27.443-24.781zM543.13 512.205c-5.734 7.782-12.186 15.36-24.371 27.546l-69.53 69.53c-1.536-22.323-2.56-30.618-6.963-52.224-8.294 2.048-15.565 2.56-24.883 2.048 7.27 28.57 9.83 43.11 11.469 70.656-4.198 4.198-7.27 6.758-12.698 11.162l12.698 12.698c-1.024 15.565-2.867 26.726-6.451 42.291l-37.376-36.966c-12.186-12.186-19.251-19.763-25.702-28.262l-17.408 17.408c7.782 5.734 16.077 13.005 28.774 25.702l44.646 44.646c-3.584 11.981-6.246 17.613-10.854 26.010l-13.722-13.824c-3.686 4.71-6.451 8.090-13.21 14.848l-1.536 1.536-41.779-41.779c-10.854-10.854-18.125-19.251-24.678-27.75l-17.92 17.92c8.090 5.939 16.589 13.517 27.75 24.678l41.779 41.779-2.867 2.867c-6.758 6.758-11.162 10.65-17.408 15.36l17.613 17.613c4.198-5.734 8.294-10.342 15.36-17.408l2.867-2.867 61.542 61.542-2.867 2.867c-6.758 6.758-11.469 10.854-17.408 15.36l17.92 17.92c4.198-5.734 8.090-10.138 15.36-17.408l2.867-2.867 41.472 41.37c11.162 11.162 18.739 19.763 24.883 28.058l17.92-17.92c-8.806-6.758-17.101-14.029-28.058-24.883l-41.574-41.574 6.963-6.963c7.27-7.27 8.806-8.806 14.234-12.698l-17.408-17.408c-3.379 4.915-5.734 7.27-13.21 14.848l-6.451 6.451-61.542-61.542 2.048-2.048c3.072-3.072 7.27-7.27 9.318-8.806l20.275 14.029c0.819-3.891 4.403-13.722 9.626-29.901l112.435 112.435c12.595 12.39 20.173 20.89 25.6 28.467l17.408-17.408c-8.294-6.246-16.384-13.722-28.058-25.395l-120.422-120.525c7.27-27.034 10.138-48.538 10.342-72.192l85.197-85.197c10.342-10.342 18.739-17.613 27.546-24.371l-19.558-19.456zM638.157 610.406c-8.090-8.090-17.101-16.077-29.286-25.19-7.578 5.939-11.981 8.806-20.275 12.493 15.36 10.138 24.166 16.896 32.973 25.702 9.626 9.626 9.83 11.469 3.072 18.125l-38.195 38.195-45.466-45.466c-11.162-11.162-18.432-19.456-25.19-28.262l-17.408 17.408c8.090 5.939 16.384 13.21 28.058 24.883l45.67 45.67-0.819 0.819c-7.578 7.578-11.674 11.162-17.613 15.565l10.138 10.138c7.27 20.787 9.83 33.28 12.186 56.832l-77.619-77.619c-9.318-9.318-15.565-16.589-22.323-25.395l-16.384 16.384c6.963 5.427 13.21 11.162 25.19 23.142l75.571 75.571c10.342 10.342 15.053 15.565 19.251 21.299l20.787-3.072c-0.819-4.403-0.819-4.403-1.536-11.469-3.072-30.618-7.27-49.869-16.896-79.667l6.246-6.246 49.869 49.869c11.469 11.469 18.739 19.763 24.883 28.058l17.408-17.408c-8.294-6.246-17.101-14.029-28.262-25.19l-49.562-49.766 41.267-41.267c15.36-15.36 14.234-24.166-5.734-44.134zM237.363 448.922l46.694 46.694 39.219-39.219-46.694-46.694-39.219 39.219zM185.446 500.838l46.694 46.694 37.683-37.683-46.694-46.694-37.683 37.683zM331.571 354.611l-40.755 40.755 46.694 46.694 40.755-40.755-46.694-46.694z" />
<glyph unicode="&#xe946;" glyph-name="trc-seat" d="M813.056 949.76h-602.112c-110.387 0-200.704-90.317-200.704-200.704v-602.112c0-110.387 90.317-200.704 200.704-200.704h602.112c110.387 0 200.704 90.317 200.704 200.704v602.112c0 110.387-90.317 200.704-200.704 200.704zM307.507 520.602c-0.512-42.189-1.536-80.282-3.277-114.483s-4.198-65.024-7.578-92.467c-3.379-27.443-7.68-52.736-13.005-75.878s-11.571-44.646-18.739-64.614c-7.27-19.968-15.667-39.834-25.293-59.597-6.758 5.325-14.234 9.114-22.426 11.571s-18.739 4.301-31.744 5.734c15.872 18.33 29.594 42.496 41.165 72.602s20.582 67.891 27.136 113.459c6.451 45.568 10.24 99.942 11.162 163.328 0.922 63.283-0.717 137.626-5.018 222.925 12.083-2.458 39.731-3.891 83.046-4.301 43.315-0.512 103.322-0.717 179.917-0.717-13.517 14.438-31.744 29.901-54.886 46.285l39.731 38.298c14.438-16.896 27.443-32.358 39.014-46.592s21.402-26.829 29.594-37.888c70.349 0 125.952 0.41 166.912 1.126s66.97 2.048 78.029 3.994v-44.032c-5.734 0.922-15.155 1.638-28.16 2.15s-27.955 0.922-44.749 1.434c-16.896 0.512-34.816 0.717-53.862 0.717s-37.888 0-56.73 0h-330.957c1.024-53.35 1.229-100.864 0.717-143.053zM763.392 455.578c18.33-10.342 36.557-21.811 54.886-34.304l-29.594-39.014c-13.926 14.95-28.979 28.774-45.158 41.574s-33.894 24.883-53.146 36.454c-6.246-13.005-13.107-26.419-20.582-40.141s-14.541-26.419-21.299-37.888c-6.758 6.758-13.414 12.083-19.866 15.872-6.451 3.891-15.77 6.246-27.853 7.27 22.63 21.709 41.574 48.026 56.73 79.155 15.155 31.027 25.6 68.71 31.437 113.050 9.114-6.246 17.613-10.854 25.293-13.722s15.155-4.813 22.426-5.734c7.68-0.922 12.083-3.891 13.005-8.704s-2.458-8.909-10.138-12.288c-4.813-2.458-9.728-8.294-14.848-17.715-5.018-9.421-12.39-26.112-22.016-50.176 22.221-12.083 42.394-23.347 60.723-33.69zM488.858 461.414c16.384-13.722 31.539-28.058 45.466-43.008l-37.581-29.594c-5.325 8.192-10.445 15.667-15.565 22.426-5.018 6.758-10.445 13.107-16.282 19.149-5.734 6.042-12.39 12.186-19.866 18.432s-16.282 13.005-26.419 20.275c-7.27-18.33-15.77-36.762-25.6-55.296s-19.354-34.099-28.57-46.592c-6.758 6.758-13.619 12.083-20.582 15.872-6.963 3.891-15.974 6.246-27.136 7.27 11.059 9.114 21.914 20.787 32.461 35.021s20.275 30.31 28.877 48.435c8.704 18.022 16.282 37.581 22.733 58.47 6.554 20.992 11.162 42.701 14.131 65.434 8.704-5.325 16.998-10.035 24.883-14.131 7.987-4.096 16.282-6.656 24.883-7.578 6.246-0.922 9.728-3.584 10.445-7.987 0.717-4.301-1.843-7.68-7.578-10.138-6.246-2.867-12.186-8.090-17.715-15.565s-11.674-20.378-18.432-38.605c22.118-14.541 41.062-28.57 57.446-42.291zM838.554 129.434c-15.872 1.434-32.666 2.662-50.176 3.584-17.613 0.922-37.069 1.843-58.573 2.56-21.402 0.717-44.954 1.229-70.451 1.434s-54.17 0.41-86.016 0.41c-36.147 0-67.277-0.102-93.594-0.41-26.214-0.205-49.459-0.717-69.734-1.434s-38.298-1.536-54.17-2.56c-15.872-0.922-31.744-2.15-47.718-3.584v52.019c14.438-1.434 29.184-2.56 44.032-3.277 14.95-0.717 31.539-1.434 49.869-2.15s39.014-1.331 62.157-1.843c23.142-0.512 50.278-0.717 81.613-0.717v106.906c-38.502 0-74.035-0.41-106.598-1.126-32.461-0.717-59.597-2.048-81.306-3.994v44.749c21.709-1.434 48.742-2.662 81.306-3.584 32.461-0.922 67.994-1.434 106.598-1.434v132.301c0 30.31-0.102 56.627-0.41 78.746-0.205 22.118-0.512 40.96-0.717 56.32s-0.717 27.648-1.434 36.864c-0.717 9.114-1.536 16.179-2.56 20.992 9.626-3.379 19.149-5.427 28.57-6.144s18.125-0.614 26.419 0.41c7.27 0.922 11.162-1.434 11.878-7.27 0.717-5.734-2.253-10.65-9.011-14.438-3.891-2.458-6.349-7.27-7.578-14.438-1.229-7.27-1.843-14.95-1.843-23.142v-260.096c39.936 0 76.698 0.41 110.182 1.126s61.235 2.048 83.456 3.994v-44.749c-22.118 1.946-49.971 3.277-83.456 3.994s-70.246 1.126-110.182 1.126v-106.906c33.28 0 62.054 0.102 86.323 0.41 24.269 0.205 45.978 0.717 65.024 1.434s36.25 1.536 51.61 2.56c15.36 0.922 30.822 2.15 46.285 3.584l0.205-52.224z" />
<glyph unicode="&#xe947;" glyph-name="trc-sweep" d="M918.118-53.76h-205.414v75.264h175.616c27.648 0 50.176 22.528 50.176 50.176v175.616h75.264v-205.414c0-52.838-42.803-95.642-95.642-95.642v0zM938.496 648.704v175.616c0 27.648-22.426 50.176-50.176 50.176h-175.616v75.264h205.414c52.838 0 95.642-42.803 95.642-95.539v-205.517h-75.264zM135.68 874.496c-27.75 0-50.176-22.528-50.176-50.176v-175.616h-75.264v205.517c0 52.736 42.803 95.539 95.642 95.539h205.414v-75.264h-175.616zM105.882-53.76c-52.838 0-95.642 42.803-95.642 95.642v205.414h75.264v-175.616c0-27.648 22.528-50.176 50.176-50.176h175.616v-75.264h-205.414zM10.24 402.33v91.238h1003.52v-91.238h-1003.52z" />
<glyph unicode="&#xe948;" glyph-name="trc-trash" d="M771.584 34.202h-517.12v621.875h-87.962v-630.272c0-43.827 35.738-79.565 79.565-79.565h533.914c43.827 0 79.565 35.738 79.565 79.565v630.272h-87.962v-621.875zM343.962 552.653h87.962v-518.349h-87.962v518.349zM585.011 552.653h87.962v-518.349h-87.962v518.349zM332.595 861.798h361.677v-57.958h87.962v84.173c0 34.099-27.75 61.747-61.747 61.747h-414.003c-34.099 0-61.747-27.75-61.747-61.747v-84.173h87.962v57.958zM899.686 803.635h-775.373c-24.269 0-43.93-19.661-43.93-43.93s19.661-43.93 43.93-43.93h775.373c24.269 0 43.93 19.661 43.93 43.93s-19.661 43.93-43.93 43.93z" />
<glyph unicode="&#xe949;" glyph-name="trc-whistle" d="M658.33 624.23l-36.966 23.040 92.365 148.070 36.966-23.040-92.365-148.070zM533.811 840.704h-43.622v-174.49h43.622v174.49zM401.203 647.27l-92.365 148.070-36.966-23.245 92.365-148.070 36.966 23.245zM1013.76 448.102l-353.382-74.138c4.301-17.613 4.301-39.219 4.301-56.832 0-143.974-117.76-261.939-261.939-261.939-122.061 0-222.413 82.842-253.030 191.898-13.005-8.704-30.618-17.306-52.429-17.306-47.821 0-87.040 39.219-87.040 87.142s39.219 87.142 87.142 87.142c21.914 0 39.219-8.704 52.429-17.306 30.618 109.056 130.97 191.898 253.030 191.898h43.622v-87.142h130.97v87.142h436.224v-130.458h0.102zM141.21 317.133c0 26.214-17.613 43.52-43.622 43.52s-43.52-17.306-43.52-43.52c0-26.214 17.613-43.52 43.52-43.52 26.010 0 43.622 17.306 43.622 43.52z" />
<glyph unicode="&#xe94a;" glyph-name="trc-wifi" d="M511.59 865.997c-192.512 0-368.128-70.861-501.35-188.006l71.168-59.904c113.357 103.117 264.294 165.99 430.080 165.99 165.581 0 316.314-62.771 429.67-165.581l72.602 58.573c-133.325 117.658-309.35 188.928-502.17 188.928zM511.488 404.173c-85.811 0-162.714-37.478-215.142-96.87l80.691-41.472c32.461 37.581 80.589 61.44 134.349 61.44 59.187 0 111.616-20.89 143.667-65.229l69.427 47.718c-52.326 57.958-128.41 94.413-212.992 94.413zM151.859 495.411l71.27-56.218c73.933 73.114 175.821 118.272 288.358 118.272 114.79 0 218.624-47.002 292.864-122.778l71.987 55.808c-94.003 91.341-222.822 147.763-364.851 147.763-139.366 0-266.035-54.374-359.629-142.848zM508.518 178.074c-34.099 0-61.645-27.443-61.645-61.235 28.979-46.592 61.645-86.835 61.645-86.835l64.922 86.835c0 33.792-30.822 61.235-64.922 61.235z" />
<glyph unicode="&#xe94b;" glyph-name="trc-cupcake" d="M941.487 510.464h-112.586l-245.868 245.922c0.377 3.503 1.078 7.006 1.078 10.563 0 45.972-37.349 83.267-83.375 83.267-45.972 0-83.267-37.295-83.267-83.267 0-4.743 0.647-9.162 1.293-13.635l-242.796-242.85h-112.586c-15.845 0-28.726-12.827-28.726-28.726v-39.613c0-15.845 12.881-28.726 28.726-28.726h22.043l60.955-320.135c0-13.581 10.995-24.522 24.522-24.522h662.959c13.581 0 24.576 10.995 24.576 24.522l60.955 320.135h21.989c15.899 0 28.78 12.827 28.78 28.726v39.559c0.162 16.007-12.719 28.78-28.672 28.78zM464.734 692.197c10.995-5.282 23.013-8.461 35.948-8.461 13.905 0 26.732 3.719 38.211 9.701l182.919-182.973h-438.757c0 0 181.679 181.733 181.679 181.733zM276.426 119.673h-15.252c-16.492 0-32.121 9.593-34.762 21.612l-44.248 197.794c-3.665 16.061 9.27 29.373 28.888 29.373h18.055c19.618 0 37.726-13.312 40.475-29.373l33.091-197.794c2.102-11.965-9.701-21.612-26.247-21.612zM434.877 119.673h-15.252c-16.492 0-30.936 9.593-32.229 21.612l-20.857 197.794c-1.671 16.061 12.827 29.373 32.391 29.373h18.055c19.672 0 36.271-13.312 36.972-29.373l9.701-197.794c0.755-11.965-12.234-21.612-28.78-21.612zM624.856 141.285c-0.862-12.019-14.929-21.612-31.528-21.612h-15.252c-16.492 0-29.858 9.593-29.642 21.612l2.533 197.794c0.216 16.061 16.33 29.373 36.002 29.373h18.001c19.725 0 34.654-13.312 33.523-29.373l-13.635-197.794zM785.893 141.285c-2.317-12.019-17.57-21.612-34.115-21.612h-15.252c-16.492 0-28.672 9.593-27.109 21.612l26.031 197.794c2.102 16.061 19.833 29.373 39.451 29.373h18.001c19.725 0 33.091-13.312 30.127-29.373 0 0-37.133-197.794-37.133-197.794z" />
<glyph unicode="&#xe94c;" glyph-name="trc-dark" d="M1024 448c0 282.764-229.236 512-512 512s-512-229.236-512-512c0-282.764 229.236-512 512-512s512 229.236 512 512zM484.026 454.516c-23.040 64.419-51.526 28.905-58.415 45.94-13.172 32.535-95.93 103.564-84.34 148.806 8.89 34.63-81.734 63.209-126.511 24.111 17.92 21.039 17.455 110.778 65.35 101.376 39.238-7.727 65.024 9.309 88.669 6.004 47.383-6.609 26.996-17.361 71.028-28.439 24.902-6.284 77.591 22.156 115.526 10.054 10.007-3.212 20.527-19.596 8.378-36.771-10.147-14.336-64.605-12.893-44.404-30.301 17.082-14.755 48.547-40.588 74.752-46.033 26.438-5.539-2.42 60.788 22.668 67.677s110.778-61.114 99.793-67.677c-25.926-15.453 36.585-18.851 26.764-28.719-4.143-4.096-75.357 24.111-80.012 13.871-12.94-28.532 25.507-9.588 17.222-32.116-2.188-5.958-16.291-1.396-23.459-7.308-19.875-16.337-43.287-41.519-47.616-45.196-23.878-20.294-7.727-32.163-15.407-38.633-6.749-5.679-16.244 19.503-22.714 14.383-21.504-17.036-55.994-11.683-55.994-25.181s35.561-13.917 48.361-20.62c16.291-8.518 8.844-25.321 13.033-25.321 26.205 0 50.036-45.382 50.036-45.382s18.665-17.548 46.592-15.127c73.030 6.284 74.612-44.125 74.612-44.125 26.671 8.564 65.676-16.244 50.083-28.486-31.325-24.623-30.627-63.86-30.627-63.86-20.666-15.5-133.027-104.681-119.529-137.263-13.498-18.665 2.001-38.26-13.498-47.663-25.228-15.36-63.116 51.852-31.558 59.951-5.446 5.865-11.636 17.734 0 36.212 5.12 8.099 3.119 52.876 6.47 100.911-132.282 96.535 2.141 127.953-24.297 142.848-8.704 4.934-23.785 26.531-50.223 31.325-21.457 4.003-46.545-9.309-50.735 10.752z" />
</font>
</defs>
</svg>
